<svg id="Logo" data-name="Layer 1" xmlns="http://www.w3.org/2000/svg" viewBox="0 0 149.27 114.63"><defs><style>.cls-1{fill:#020202;}.cls-2{fill:#fefefe;}.cls-3{fill:#141414;}.cls-4{fill:#151515;}.cls-5{fill:#bfbfbf;}.cls-6{fill:#c5c5c5;}.cls-7{fill:#c7c7c7;}.cls-8{fill:#2d2d2d;}.cls-9{fill:#bdbdbd;}.cls-10{fill:#cdcdcd;}.cls-11{fill:#b9b9b9;}.cls-12{fill:#5f5f5f;}.cls-13{fill:#313131;}.cls-14{fill:#2c2c2c;}.cls-15{fill:#353535;}.cls-16{fill:#323232;}.cls-17{fill:#2f2f2f;}.cls-18{fill:#2b2b2b;}.cls-19{fill:#303030;}.cls-20{fill:#3c3c3c;}.cls-21{fill:#bebebe;}.cls-22{fill:#343434;}.cls-23{fill:#848484;}.cls-24{fill:#434343;}.cls-25{fill:#777;}.cls-26{fill:#121212;}.cls-27{fill:#6b6b6b;}.cls-28{fill:#878787;}.cls-29{fill:#dbdbdb;}.cls-30{fill:#9f9f9f;}.cls-31{fill:#707070;}.cls-32{fill:#6e6e6e;}.cls-33{fill:#6f6f6f;}.cls-34{fill:#6d6d6d;}.cls-35{fill:#727272;}.cls-36{fill:#676767;}.cls-37{fill:#717171;}.cls-38{fill:#6a6a6a;}.cls-39{fill:#757575;}.cls-40{fill:#b5b5b5;}.cls-41{fill:#c1c1c1;}.cls-42{fill:silver;}.cls-43{fill:#b7b7b7;}.cls-44{fill:#696969;}.cls-45{fill:#6c6c6c;}.cls-46{fill:#8b8b8b;}.cls-47{fill:#767676;}.cls-48{fill:#8d8d8d;}.cls-49{fill:#737373;}.cls-50{fill:#747474;}.cls-51{fill:#686868;}.cls-52{fill:#858585;}.cls-53{fill:#fcfcfc;}.cls-54{fill:#eee;}.cls-55{fill:#636363;}.cls-56{fill:#656565;}.cls-57{fill:#666;}.cls-58{fill:#646464;}.cls-59{fill:#606060;}.cls-60{fill:#0a0a0a;}.cls-61{fill:#2e2e2e;}.cls-62{fill:#292929;}.cls-63{fill:#555;}</style></defs><path class="cls-1" d="M74.43,114.59c-23.94,0-47.89,0-71.83,0-2,0-2.6-.39-2.6-2.51Q.11,57.21,0,2.28C0,.56.4,0,2.22,0Q74.66.08,147.1,0c1.62,0,2.17.38,2.17,2.09q-.08,55.23,0,110.45c0,1.76-.62,2.07-2.2,2.07Q110.76,114.54,74.43,114.59Z"/><path class="cls-2" d="M74.64,110.49c-22.67,0-45.34,0-68,.06-2.1,0-2.51-.59-2.51-2.58q.1-50.7,0-101.42c0-1.88.44-2.46,2.41-2.46q68.21.09,136.43,0c1.82,0,2.21.53,2.21,2.26q-.07,50.91,0,101.82c0,1.81-.41,2.37-2.31,2.37Q108.75,110.44,74.64,110.49Z"/><path class="cls-3" d="M25,53.31c0-7.82,0-15.63,0-23.45,0-1.59-.44-2.13-2-2s-3.34,0-5,0c-.86,0-1.21-.3-1.2-1.16q0-4.9,0-9.82c0-1,.47-1.21,1.37-1.2,11.17,0,22.34-.09,33.5.18,6.54.15,12.7,2,17.79,6.37,7.12,6.11,9.36,14.18,8.38,23.13-1.48,13.49-9.91,21.2-24.58,23a80.78,80.78,0,0,1-12.82.42c-1.83-.06-2.33.53-2.19,2.27a49,49,0,0,1,0,5.81c-.05,1.24.45,1.61,1.65,1.59,3.14-.07,6.28,0,9.43,0,1.3,0,1.74.38,1.7,1.71C51,83.12,51,86.06,51,89c0,1.13-.2,1.68-1.52,1.67q-15.66-.06-31.3,0c-1,0-1.43-.31-1.41-1.36q.06-4.71,0-9.42c0-1,.28-1.47,1.36-1.41,1.27.07,2.54,0,3.82,0,3.47,0,3,.34,3-2.93C25,68.14,25,60.73,25,53.31Z"/><path class="cls-4" d="M111.41,93.53c-7.24-4-10.14-10.3-8.18-17.6a14.27,14.27,0,0,1,21.48-8.42c.32-2.43,1.19-2.79,4.67-1.94A2.31,2.31,0,0,1,130,67.4c0,2.06,0,4.12,0,6.18,0,1.26-.42,2.3-1.81,2.45s-2.82.37-3.53-1.32a2.94,2.94,0,0,0-.88-1.94c-1.09-.52-1.94-1.46-3.13-1.81a8.44,8.44,0,0,0-6.27.1c-6.76,2.06-7.61,12.71-2.34,16.43a21.31,21.31,0,0,0,2.15,1.72c3.35,1.42,6.69,1,10,0,1.43-2.3.18-4.89-2.43-5-.86,0-1.72,0-2.59,0-1.51-.07-2.27-.69-2.23-2.34.06-2.35.07-2.47,2.42-2.45,3.45,0,6.91-.08,10.36.05,1.26,3.76.61,7.62.51,11.43,0,1.5-1.49,2.15-2.73,2.64C122.18,95.61,116.79,96.39,111.41,93.53Z"/><path class="cls-4" d="M111.36,45.11l-.72-.08a10.22,10.22,0,0,1-4.08-1.56c-.51-1.63.91-2.66,1.29-4,.14-.49.61-.34,1-.14a14.16,14.16,0,0,0,1.66.69c5,1.61,7.51-.13,7.58-5.31.06-4.27,0-8.53,0-12.8,0-.43.18-.94-.3-1.28a1.19,1.19,0,0,0-1-.19c-1.63.26-2.18-.37-2.09-2.05.16-3.17-.36-2.73,2.76-2.76,2.39,0,4.78,0,7.17,0,1,0,2,0,2,1.28s.54,2.85-1.07,3.7c-.46.25-1,.2-1.42.65-.54,1.89-.19,3.82-.25,5.73-.1,2.84.1,5.69-.1,8.54-.44,1.53-.47,3.13-1,4.66C121.37,45,115,46.68,111.36,45.11Z"/><path class="cls-5" d="M111.41,93.53c4.64,1.4,9.29,1.78,14,.17l.39-.1c3.92-1.28,4.08-1.5,4.07-5.57,0-2.8,0-5.6,0-8.41-.21-.17-.2-.33,0-.48.46.71.63,1.67,1.66,1.88a4.42,4.42,0,0,0,3.2,2.13,3.06,3.06,0,0,1-.13,2.89c-.91.21-1.37-.71-2.09-.84.56.43,1.59.52,1.44,1.64-.84.58-1.23-.51-1.89-.51.91.31,1.53,1.24,2.58,1.29a2.78,2.78,0,0,1,0,2.8c-1.21.16-1.73-1-2.52-1.2.45.73,1.92.7,2.16,2l-.4,0c-.8.62-1.18-.51-1.84-.45.94.29,1.6,1.19,2.65,1.24.76.65-.15.77-.36,1.12-1,.34-1.4-.7-1.87-.78.51.25,1,1.23,2.15.94,1,.85,0,1.32-.35,1.93-.6-.37-1-.94-1.68-1.26-.22-.16-.24.22-.11,0,0,0,.05,0,.15.07.43.27.94.46.85,1.12,0,1.22-1.06.89-1.67,1.22a18.07,18.07,0,0,0-2.49-1.64c.39.66,1.79.44,1.77,1.69a3.18,3.18,0,0,1-2.88,1c-.08-1.07-1.4-.91-1.62-1.63-.32-.26-.34.21-.23,0,0,0,.1-.05.16,0,.35.58,1.4.52,1.35,1.48-.48.35-.79,1.4-1.6.39-.07-.9-1.07-.93-1.22-1.27.2.29,1,.46,1.22,1.26-.57,0-.81,1.3-1.61.4-.09-1.15-1.3-1.11-1.86-1.77.57.65,1.73.67,1.86,1.77-.77-.37-1.59,1-2.35,0-.43-.86-1-1.46-2.07-1-.71.62-1.26-.79-2-.16-.41.09-.77.8-1.24.09a6.44,6.44,0,0,0-2.76-1.29C113.82,94.15,112.05,94.64,111.41,93.53Z"/><path class="cls-6" d="M111.36,45.11c1.4,0,2.79,0,4.18-.12,3.91-.32,6.31-2.43,7.23-6.3.22-1,.39-1.95.58-2.93.87.74.5,1.77.64,2.68.47,2,2.44,2.37,3.81,3.4a.68.68,0,0,1-.5.85c-1.21.29-1.76-.91-2.63-1.17.72.66,1.9.9,2.37,2,0,.43.23,1-.47,1.12-.51-1.08-1.61-1.46-2.46-2.07.59.76,2.08.67,2.12,2.07v.42c-1.33,0-2-1.23-3.12-1.59,1,.62,2.06,1.32,3.11,2-1.82,2.55-4.57,3-7.39,3.18-.19,0-.4-.27-.6-.42.3-1-.66-.88-.9-1.17s-.36.13-.2-.08c0,0,.08,0,.18.07.27.22.74.33.45.85-.47.4-.8,1.31-1.6.41,0-.76-.84-.76-1.19-1.21,0,0-.21-.65-.33,0a1.24,1.24,0,0,1-.05.38c-.55.22-1.08.71-1.65.05,0-1-1.63-.84-1.56-2Z"/><path class="cls-7" d="M114.18,89.21a9.15,9.15,0,0,1-6.07-8.89c-.06-4.77,2-8.17,5.89-9.64.48-.07,1-.32,1.42.07a.94.94,0,0,1,.17.54.77.77,0,0,1-.31.44,1.72,1.72,0,0,1-.5.11,2,2,0,0,0-1.14.35l-.4.23a4,4,0,0,0-.72.57c-.22.22-.42.46-.64.67l-.36.29a1.44,1.44,0,0,0-.33.84c.63,1.5,2.32,1.7,3.34,2.71L112.94,82a1.28,1.28,0,0,1-1.61-1.17c-.06-.33.78-.09.39-.54a5.06,5.06,0,0,0-1.31-.94c-.18-.13-.16.36-.06.12s.1-.1.18,0c.4.37,1.16.53.82,1.35-.5.37-.85.08-1.25-.36.64,1,2.17,1,2.16,2.35-1.33.68-1.71-.85-2.52-1,.24.34,1.08.52.91,1.37,0,.18-.67.17-.26.4,1,.58,1.85,1.42,2.91,1.92l-.31.86c-.65.31-1.07-.2-1.84-.55a22.44,22.44,0,0,0,2.46,1.37A1.52,1.52,0,0,0,114.18,89.21Z"/><path class="cls-8" d="M134.3,51.87c.76.57.48,1.32.37,2a.47.47,0,0,1-.6,0,3.08,3.08,0,0,0-2.68-1c-2.26,0-4.53.28-7-.49,1.39.58,1.39.58,1,2.05-4.59.21-9.18,0-13.76.07-.44,0-1.05.17-1.17-.45s.44-.88,1-1a3.44,3.44,0,0,1,2-.22,1.42,1.42,0,0,0,1.69-.73,1.16,1.16,0,0,1,.65-.33h16.8A3.8,3.8,0,0,1,134.3,51.87Z"/><path class="cls-9" d="M129.84,79.14l0,.48-11.38-.11c-1.92,0-1,1.48-1.16,2.35s-.38,2,1.2,1.88,3.46,0,5.19,0c1.1,0,1.6.4,1.54,1.53,0,.93,0,1.86,0,2.79,0,.65-.12,1.23-1,1.15.31-.7.81-1.41-.06-2.08A9,9,0,0,0,122,85.52c.31.43,1.23.39,1,1.25l-.89.34c-1.2-.6-2-1.9-3.5-2-1.81-1-2.27-2.49-2.06-4.44.12-1.17.55-1.66,1.72-1.64C122.15,79.11,126,79.11,129.84,79.14Z"/><path class="cls-10" d="M124.65,74.71c1.25,1.37,2.82.65,4.25.56.59,0,.41-.88.41-1.38,0-2.77.05-5.55.07-8.32.46,0,.93-.09,1.28.34a5.88,5.88,0,0,0,3.59,5.64c-.17.52.73,1.07,0,1.57-.83-.59-1.65-1.2-2.45-1.75.46.65,1.7.64,1.69,1.8a.85.85,0,0,1,0,.32c-.92.45-1.42-.27-2-.72-.21-.16-.41-.17-.19,0,0,0,0,.11,0,.17a2.92,2.92,0,0,1-.06.44c-.23.75,1.19,1.05.54,1.91a.78.78,0,0,0-.54.63.87.87,0,0,1-.3.33l-.41.25a3.78,3.78,0,0,1-.83.53,7.8,7.8,0,0,1-2.68.19C126.41,76.15,124.5,76.39,124.65,74.71Z"/><path class="cls-11" d="M115.49,71.29c-.32-.62-.95-.52-1.49-.61a8.16,8.16,0,0,1,7.09,0c-.76.87-1.74-.06-2.54.32.16,1,1.81.89,1.65,2.14-1.76,1.17-3.8,1.93-5.27,3.53-1.18-1.06-3-1.41-3.67-3l.61-.12c1.32-.27,1.93.81,2.69,1.34-.47-1-2-.94-2.42-2.09l1-.74c.37.95,1.44,1.07,2,1.65-.46-.66-1.68-.59-1.87-1.65.51,0,.53-1.25,1.33-.54.27.9,1.35.94,1.78,1.66-.29-.7-1.4-.64-1.45-1.57l.67-.11c1.11-.15,1.65.87,2.51,1.24A6.49,6.49,0,0,0,115.49,71.29Z"/><path class="cls-12" d="M134.28,53.94a.86.86,0,0,1,.39,0c-.06.93-.77.77-1.34.76q-14.43-.08-28.86-.19c-.57,0-1.24.18-1.61-.51,1.06-1,2.34-.58,3.55-.54a2.71,2.71,0,0,0,2.59-.56c1.81-1.34,4.18-1.13,6.38-.56.16,1.47-.92,1.39-1.68,1.07-1.16-.5-1.93.29-2.92.29l0,.52h14.66C128.39,53.28,131.34,53.67,134.28,53.94Z"/><path class="cls-13" d="M53.45,84.44l.84.53c2.69,1.72,5.38,3.43,8.06,5.16.48.32,1.13.53,1.2,1.23a1.42,1.42,0,0,1-.12,1c-.24.32-.61,0-.87-.12l-9-5.89A1.23,1.23,0,0,1,53,84.94C53,84.67,53.12,84.45,53.45,84.44Z"/><path class="cls-14" d="M74.82,60.12c.21.12.5.28.78.46,2.89,1.89,5.79,3.78,8.66,5.7.41.28,1.31.45.77,1.28s-1,.33-1.54,0l-9-5.85c-.32-.2-.79-.34-.59-.87A1,1,0,0,1,74.82,60.12Z"/><path class="cls-15" d="M53.23,88.1l.82.54c2.85,1.86,5.7,3.71,8.54,5.59a2.9,2.9,0,0,1,.93,1,1.08,1.08,0,0,1-.09.94c-.23.36-.59.1-.85-.07-3-2-6-4-9-5.93A1.34,1.34,0,0,1,53,88.58,2.22,2.22,0,0,1,53.23,88.1Z"/><path class="cls-8" d="M77.23,73.23c-.84,1-1.56.8-2.38.25-2.77-1.85-5.57-3.65-8.33-5.52-.32-.22-1.28-.3-.72-1.07a1.13,1.13,0,0,1,1.62-.14c1.29.84,2.58,1.67,3.85,2.52C73.26,70.58,75.24,71.91,77.23,73.23Z"/><path class="cls-16" d="M90.57,52.07a1,1,0,0,1-.22.5c-.29.27-.61.06-.89-.13l-9-6c-.54-.36-1-.91-.54-1.5s.94,0,1.32.26q4.14,2.63,8.24,5.31C90,50.86,90.58,51.1,90.57,52.07Z"/><path class="cls-16" d="M73.74,74.71a2.14,2.14,0,0,1-2.74.08c-2.72-1.79-5.48-3.54-8.2-5.35-.32-.21-1.08-.29-.73-.94a1.2,1.2,0,0,1,1.43-.42,1.28,1.28,0,0,1,.36.16Z"/><path class="cls-16" d="M87,64.83c-.22.58-.56.88-1.19.47L76.12,59a.69.69,0,0,1-.31-1c.31-.51.72-.51,1.19-.21L86.53,64A.89.89,0,0,1,87,64.83Z"/><path class="cls-8" d="M88.62,61.41c-.35.9-.5,1.54-1.35,1-3.12-2-6.25-4-9.36-6.1-.47-.3-.83-.7-.4-1.32s.8-.23,1.18,0l9.18,6C88.15,61.18,88.45,61.32,88.62,61.41Z"/><path class="cls-17" d="M80.17,71.58c-.25.53-.7,1-1.24.61-3.31-2.09-6.59-4.24-9.87-6.38-.26-.17-.53-.43-.13-.77s.78-.54,1.26-.23q1.44.9,2.85,1.83c2.12,1.37,4.24,2.74,6.34,4.14C79.68,71,80.17,71,80.17,71.58Z"/><path class="cls-13" d="M63.27,88.81c-3.3-2.15-6.57-4.28-9.82-6.44a1,1,0,0,1-.38-1.55c.55-.68.94.17,1.29.39,2.71,1.7,5.37,3.47,8,5.22C63.19,87,64,87.46,63.27,88.81Z"/><path class="cls-13" d="M90.23,49.08c-3.32-2.19-6.58-4.33-9.81-6.49A1.06,1.06,0,0,1,80,41.2c.45-.69.92,0,1.32.22,2.74,1.76,5.46,3.55,8.2,5.31A1.64,1.64,0,0,1,90.23,49.08Z"/><path class="cls-8" d="M79.25,51.58l.77.47,8.7,5.7c.55.36,1.31.72.73,1.53s-1.09,0-1.5-.3c-2.93-1.86-5.81-3.78-8.72-5.67-.46-.31-.89-.63-.65-1.28A.61.61,0,0,1,79.25,51.58Z"/><path class="cls-13" d="M72.57,62.59c.22.13.57.32.9.53C76.32,65,79.18,66.84,82,68.73c.37.24,1.22.39.7,1.12s-1,.4-1.58,0c-2.95-1.94-5.93-3.85-8.88-5.8-.34-.22-.94-.4-.66-1C71.74,62.72,72.05,62.58,72.57,62.59Z"/><path class="cls-14" d="M51.63,93c1-.47,1.33-1.34,2.16-.79,3.13,2.07,6.28,4.12,9.25,6.45C58.5,98.51,55.84,94.76,51.63,93Z"/><path class="cls-13" d="M69.38,75.76a1.78,1.78,0,0,1-2.32.25L57.8,69.93c.7-.74,1.34-.89,2.1-.39Z"/><path class="cls-18" d="M79.59,37c5.16,2.09,10,5.83,10.1,8C86.26,42.07,82,40.79,79.59,37Z"/><path class="cls-13" d="M80,48.28l.8.49c2.8,1.81,5.59,3.61,8.38,5.43.38.25.89.42,1,.95a1.43,1.43,0,0,1-.14.94c-.24.36-.59.1-.85-.08q-4.65-3.1-9.29-6.23a.83.83,0,0,1-.45-1A.6.6,0,0,1,80,48.28Z"/><path class="cls-17" d="M53.05,70.76c1.87-.72,8.05,2.62,11.32,5.84a1.47,1.47,0,0,1-1.85.23C59.4,74.87,56.31,72.86,53.05,70.76Z"/><path class="cls-19" d="M23,92.74c4.52.25,7.25,3.81,10.76,5.94C29.31,98.26,26.49,94.87,23,92.74Z"/><path class="cls-20" d="M45.43,98.67c-4.41-.37-7.18-3.79-10.63-6C39.16,93.13,42,96.52,45.43,98.67Z"/><path class="cls-21" d="M123.47,20.64c.32-.5.85-.35,1.27-.29,1.43.2,1.63-.54,1.6-1.74-.1-3.29.23-2.71-2.8-2.75-2.34,0-4.67,0-7,0-1.09,0-1.38.33-1.56,1.45-.4,2.4.62,3.3,2.83,3.34-.59,0-1.19,0-1.79.08-1,.06-1.4-.3-1.48-1.36-.28-4-.32-4,3.68-4,1.93,0,3.87.07,5.8,0a5.61,5.61,0,0,1,4.19,1.3c-.19,2.3,1.81,2.84,3.16,3.91l-.22.78-.2.2c-1.37.21-1.95-1.57-3.34-1.31l-.49.25A3.13,3.13,0,0,1,123.47,20.64Z"/><path class="cls-13" d="M51.27,98.65c-4.46-.32-7.2-3.83-10.72-5.9C45,93,47.73,96.62,51.27,98.65Z"/><path class="cls-16" d="M57.51,98.58a2.82,2.82,0,0,1-2.71,0c-2.85-1.84-5.68-3.71-8.68-5.68a2.23,2.23,0,0,1,2.58-.08C51.55,94.64,54.36,96.52,57.51,98.58Z"/><path class="cls-19" d="M48.39,70.8c4.33.65,7.17,4,11.16,6C57.22,77.31,52,74.55,48.39,70.8Z"/><path class="cls-19" d="M28.9,92.74c4.38.48,7.2,3.81,10.7,5.92C35.12,98.39,32.45,94.76,28.9,92.74Z"/><path class="cls-8" d="M88.2,39.54c-3.36-2.15-7.26-3.58-9.58-7C82,34.6,86,35.84,88.2,39.54Z"/><path class="cls-22" d="M52.19,76.56c-3.93-.54-6.55-3.51-10-5.3C44.12,70.48,49.42,73.25,52.19,76.56Z"/><path class="cls-23" d="M134.25,71.55c-3.37-.85-4.36-2.4-3.59-5.64.55.36,1.09.74,1.65,1.08,1.37.83,2.68,1.63,1.45,3.55C133.66,70.7,134.08,71.2,134.25,71.55Z"/><path class="cls-12" d="M134.3,51.87l-18.91.1c-3.56.22-7.11.6-10.69.5a2.09,2.09,0,0,1-1.79-.6c.86-.83,1.92-.3,2.86-.3,9.08-.06,18.16,0,27.24,0C133.45,51.55,134,51.41,134.3,51.87Z"/><path class="cls-24" d="M46.84,76.47c-1.85.24-6-1.68-6.63-2.89a1.08,1.08,0,0,1,.07-1.3c.29-.3.6-.06.88.13,1.66,1.1,3.32,2.19,5,3.3A6.42,6.42,0,0,1,46.84,76.47Z"/><path class="cls-21" d="M129.43,23c0,1.2-1.24,1.32-1.73,2.08-1.59.23-2.43-.83-3.28-1.88a1,1,0,0,1,.11-.55c1-.13,1.55.54,2.21,1a4,4,0,0,0-2.83-1.32c-.78-1.59.71-1.1,1.31-1.43,1.09.25,1.46,1.49,2.44,1.75-.3-.35-.93-.44-1.17-1a1.14,1.14,0,0,1,.67-1.15.81.81,0,0,1,.52.15C128.2,21.48,129.52,21.69,129.43,23Z"/><path class="cls-25" d="M131.36,20.56c-1.53,0-2.33-1.32-3.55-1.9-.29-.14,0-1.71.39-2a6.88,6.88,0,0,0,.66.44C130.32,17.8,131.43,18.76,131.36,20.56Z"/><path class="cls-26" d="M102.91,51.87l1.62.11c1.2.17,2.27.48,2.43,1.94l-4.1,0A1.58,1.58,0,0,1,102.91,51.87Z"/><path class="cls-27" d="M127,77.19c.92-.51,1.85-1,2.88-.24.95.21,2.09.24,1.56,1.76C129.61,79.09,128.25,78.21,127,77.19Z"/><path class="cls-28" d="M131.44,75.18c.51-.38,0-.5-.19-.67s-.47-.26-.62-.46c-.46-.55-.6-1,.41-.73a3.75,3.75,0,0,1,2.57,1.46,1.72,1.72,0,0,1,.08,2.33,1,1,0,0,1-.79-.14C132.4,76.39,131.41,76.19,131.44,75.18Z"/><path class="cls-29" d="M117.81,70.72c1.08-1,2.19.3,3.28,0a4,4,0,0,1,2.68,2.07l-.83.34c-1.06-.52-1.89-1.66-3.3-1.28A2.11,2.11,0,0,1,117.81,70.72Z"/><path class="cls-25" d="M113.3,85.51c-1.73,0-2.59-1.42-4-2.11.69-.55,1-.09,1.45,0a2.35,2.35,0,0,1,1.89.15C113.13,84.08,112.57,85,113.3,85.51Z"/><path class="cls-30" d="M119.94,71.7c1.17-.64,1.63-.42,3,1.41-.82-.31-1.58.49-2.41.13C120.72,72.58,119.25,72.55,119.94,71.7Z"/><path class="cls-31" d="M111.26,73.65c1.12,1.14,3,1.34,3.67,3l-.34.08c-1.22.19-1.8-1.1-2.88-1.24a1.16,1.16,0,0,1-.74-.77C111.22,74.43,110.33,73.8,111.26,73.65Z"/><path class="cls-21" d="M128.2,25.81l0,1.29c-.92.19-1.46-.49-2.1-.92s-1.23-1-2.12-.67c-.58-.65-.33-1.21.18-1.75C125.82,23.75,126.72,25.37,128.2,25.81Z"/><path class="cls-32" d="M127.73,41l-.3,0c-1-.22-1.63-1-2.6-1.23a2.18,2.18,0,0,1-.9-.69c-.2-.46-.52-.91,0-1.38,1.7-.07,2.74,1.16,3.9,2.08A.73.73,0,0,1,127.73,41Z"/><path class="cls-25" d="M127.43,33.86c0,.4,1.63.8,0,1.2-1.24-.28-2.11-1.23-3.21-1.76-.43-.62-1.29-1.3.22-1.68A6.17,6.17,0,0,1,127.43,33.86Z"/><path class="cls-6" d="M127.73,41c-.5-2-2.37-2.33-3.88-3.08-.23-.36,0-.54.27-.69,1.85-.21,2.8,1.27,4,2.18C128,39.94,128.61,40.67,127.73,41Z"/><path class="cls-33" d="M111.36,80.77c.29.72,1,.87,1.58,1.24.08.41,0,.69-.48.74l0,0-3.65-2.84c1.31-.22,1.72.93,2.6.85Z"/><path class="cls-34" d="M112.44,82.78l0,0,.15.77c-.66.35-1.27,0-1.9-.15-.17-.89-1.32-1-1.53-2C110.49,81.38,111.11,82.93,112.44,82.78Z"/><path class="cls-27" d="M124.19,39.06l.73.39a10.81,10.81,0,0,1,2.56,1.94l.32.45c-1.93-.12-3.18-1.33-4.37-2.65C123.62,38.76,123.9,38.88,124.19,39.06Z"/><path class="cls-35" d="M114.6,47.48c-.08-.61-1-.63-1-1.52a7.43,7.43,0,0,1,3,1.84c.4.31-.17.44-.45.53C115.74,47.87,114.91,48.14,114.6,47.48Z"/><path class="cls-33" d="M128.2,25.81c-1.68.06-2.55-1.52-4-2-.32-.15-.54-.44-.39-.73s.51-.32.79,0a9.73,9.73,0,0,0,3.08,2Z"/><path class="cls-36" d="M111,74.76l.69.38a10.7,10.7,0,0,1,2.87,2.08.24.24,0,0,1,0,.28c-1.72,0-2.81-1.3-4-2.24C110.09,75,110.69,74.83,111,74.76Z"/><path class="cls-34" d="M127,43.52c-1.19-1-2.68-1.52-3.48-3l3.74,2.19C127.37,43,127.49,43.35,127,43.52Z"/><path class="cls-33" d="M131.06,96.39c-.78-1.13-2.47-1.17-3.39-3,1.74,1.13,3.26,1.56,4.11,3Z"/><path class="cls-37" d="M120.42,96.9l-.91-1.26c1.53.15,2.28,1.21,3.26,1.79.37.22-.17.46-.49.52L121,97.57A.76.76,0,0,1,120.42,96.9Z"/><path class="cls-5" d="M128.19,37.83l-.33.8c-1.59-.14-2.62-1.49-4.09-1.89a.88.88,0,0,1,.39-1C126,35.49,126.87,37.08,128.19,37.83Z"/><path class="cls-34" d="M123.9,36.75c1.67-.12,2.57,1.41,4,1.88.11.26.21.52.31.78-1.53-.17-2.35-1.7-3.81-2C124,37.33,123.66,37.24,123.9,36.75Z"/><path class="cls-33" d="M134.61,87.62c-1.86.41-2.46-1.41-3.77-2,1.36-.26,1.94,1.33,3.23,1.18l.12,0C134.27,87.09,134.26,87.44,134.61,87.62Z"/><path class="cls-38" d="M126.23,45.49c-1.72-.31-2.77-1.72-4.19-2.53,1.72.07,2.8,1.41,4.2,2.1Z"/><path class="cls-39" d="M134.26,91.18l-3.4-2.49c1.58,0,2.49,1.22,3.76,1.73C134.78,90.8,134.75,91.1,134.26,91.18Z"/><path class="cls-33" d="M128.19,37.83c-1.58-.15-2.48-1.57-3.89-2-.46-.12-.74-.33-.46-.85,1.94-.43,2.88,1,4,2.15Z"/><path class="cls-34" d="M133.45,73.17l-3.08-2.41.27-.42c1.21.9,2.77,1.24,3.57,2.78Z"/><path class="cls-40" d="M133.07,76.78l.62.33c.67.48.8,1,.07,1.55-1-1-2.74-1-3.22-2.62l.62-.1C132.1,75.54,132.41,76.55,133.07,76.78Z"/><path class="cls-21" d="M131.14,21.34c.66.59.17,1.12-.08,1.67a7.68,7.68,0,0,1-3.54-2.27l-.17-.18a.48.48,0,0,1,0-.6l.11-.13c1.44,0,2.11,1.74,3.61,1.62Z"/><path class="cls-31" d="M127.46,29.4l.46.4c-.11,1.05-.79.69-1.28.45a7.25,7.25,0,0,1-2.6-1.77c-.28-.57-.64-1.17.44-1.27A5.91,5.91,0,0,1,127.46,29.4Z"/><path class="cls-34" d="M127.53,31l.67.86c-1.88.6-2.85-.95-4.14-1.74-.21-.43-.65-.87.1-1.22A7.77,7.77,0,0,1,127.53,31Z"/><path class="cls-41" d="M124.24,29.82c1.41.5,2.33,1.94,4,2l-.39.86c-1.6.29-2.39-1.49-3.87-1.51C123.39,30.57,123.63,30.16,124.24,29.82Z"/><path class="cls-35" d="M120.42,96.9l.58.67c-1.37,1.24-1.77-.76-2.76-.82l-.78-1C118.76,95.59,119.31,97,120.42,96.9Z"/><path class="cls-42" d="M127.8,37.09c-1.47-.3-2.19-2.09-3.89-1.94-.44-.44,0-.69.22-1,1.76-.11,2.7,1.38,4.07,2.06Z"/><path class="cls-27" d="M124.28,25.39c0-.9.46-.57.82-.34,1,.66,2,1.37,3.05,2.05a.39.39,0,0,1,0,.28c-1.67.61-2.52-.73-3.61-1.5A1.26,1.26,0,0,1,124.28,25.39Z"/><path class="cls-43" d="M127.53,31,124.2,29a.54.54,0,0,1,0-.77L127,30c.36.23.7.37.91-.18C128.81,30.53,127.78,30.61,127.53,31Z"/><path class="cls-36" d="M130.54,76c.9,1.09,2.62,1.17,3.23,2.62-.42,0-.88.25-1.2-.23a18.89,18.89,0,0,1-2.08-1.34c-.32-.26-.77-.64-.11-1.06Z"/><path class="cls-44" d="M127.52,20.74,131.06,23c-.59,1.75-1.08-.28-1.63-.05C129.18,21.9,127.42,22.11,127.52,20.74Z"/><path class="cls-45" d="M124.12,31.07c.87-.87,1.24.27,1.81.48a12.43,12.43,0,0,1,1.88,1.12c.34.49.53.91-.38.84a23.69,23.69,0,0,1-2.89-1.86A.5.5,0,0,1,124.12,31.07Z"/><path class="cls-36" d="M126.23,44.64c-.81-1.34-2.71-1.4-3.3-3,1.22,1,3.19,1,3.64,3h-.34Z"/><path class="cls-32" d="M134.59,93.27c0,.41-.21.67-.61.43a10.91,10.91,0,0,1-3.35-2.49c1.66.28,2.46,1.51,3.68,1.9Z"/><path class="cls-45" d="M127.82,28.25c.19.42.48.9-.39.8-1.12-.43-1.89-1.42-3-1.85a.63.63,0,0,1-.36-.71.64.64,0,0,1,1.12-.22C126,27.05,127.31,27.11,127.82,28.25Z"/><path class="cls-35" d="M134.19,86.77l-.12,0c-.7-1.14-2.22-1.38-2.76-2.78l3.26,2C134.62,86.37,134.65,86.7,134.19,86.77Z"/><path class="cls-37" d="M128.2,36.23c-1.62-.07-2.58-1.45-4-2-.31-.16-.56-.37-.39-.75s.42-.23.68-.21a15,15,0,0,1,3,2.1Z"/><path class="cls-37" d="M134.67,92c-1.89.42-2.54-1.3-3.76-2,1.21,0,1.8,1.18,3,1.24Z"/><path class="cls-9" d="M127.82,28.25c-1.26-.45-2-2-3.68-1.59-.42,0-.54-.22-.46-.57s.55-.41.87-.56c1.3.45,2.1,1.84,3.62,1.85Z"/><path class="cls-46" d="M111.39,45.56c.62.49,1.26.95,1.85,1.47s-.1.38-.29.5c-.72-.42-1.46-.82-2.15-1.29-.16-.11-.67-.37-.18-.68C110.81,45.45,111.13,45.56,111.39,45.56Z"/><path class="cls-32" d="M119.94,71.7c-.4.74,1.33.67.59,1.54a2,2,0,0,1-.33-.08c-.55-1.06-2.37-.87-2.39-2.44Z"/><path class="cls-47" d="M117.77,47.92c-.45-.79-1.63-.81-2-2a11.14,11.14,0,0,1,3.22,1.9c.27.17.21.27-.78.44Z"/><path class="cls-37" d="M134.7,83.15c-1.35.36-3.27-.92-3.2-2.13Z"/><path class="cls-48" d="M118.64,85.14c1.72-.32,2.6.83,3.5,2C120.64,87.05,119.83,85.75,118.64,85.14Z"/><path class="cls-49" d="M123,86.77,120.9,85c1.29.39,2.72.56,3.26,2.1C123.7,87.25,123.39,86.93,123,86.77Z"/><path class="cls-27" d="M131,72.83c-.27-.25-.7-.38-.64-1,1.25.23,2,1.42,3.1,1.71a1.11,1.11,0,0,0,.29.14c-.12.81-.14.86-.57.7A4.85,4.85,0,0,1,131,72.83Z"/><path class="cls-50" d="M113.61,87.19c-1.38,0-2.27-.85-3.39-1.86,1.33-.21,1.88.86,2.77,1Z"/><path class="cls-11" d="M131,72.83c.78.44,1.53.92,2.34,1.31.55.26.39-.24.41-.51.79.5.82.9-.16,1.15A5.15,5.15,0,0,1,131,73.32C131,73.15,131,73,131,72.83Z"/><path class="cls-51" d="M127.84,97.21l-2.71-2.14c1.2.53,2.91.43,3.05,2.27Z"/><path class="cls-52" d="M114.24,95.55c1.46-.71,2.05.4,2.76,1.29A4.51,4.51,0,0,1,114.24,95.55Z"/><path class="cls-6" d="M106.56,43.47,110.64,45A4.61,4.61,0,0,1,106.56,43.47Z"/><path class="cls-5" d="M127.48,35.39a9.4,9.4,0,0,1-2.86-1.92c-.14-.08-.19-.17-.15-.26s.09-.13.13-.13a6.87,6.87,0,0,1,2.83,2C127.45,35.17,127.47,35.28,127.48,35.39Z"/><path class="cls-9" d="M124.58,31.53a7.75,7.75,0,0,1,2.85,2,.53.53,0,0,1,0,.35,7.51,7.51,0,0,1-2.81-2c-.13-.07-.18-.15-.15-.23S124.54,31.53,124.58,31.53Z"/><path class="cls-27" d="M133.45,95.12c-.56-.84-1.56-1.11-2.43-1.9a3.47,3.47,0,0,1,3.22,2Z"/><path class="cls-9" d="M124.6,27.07a7.49,7.49,0,0,1,2.83,2l0,.35a8.59,8.59,0,0,1-2.84-1.92c-.15-.09-.2-.17-.15-.27S124.55,27.07,124.6,27.07Z"/><path class="cls-40" d="M130.38,76c-.08,1.54,1.84,1.26,2.19,2.4l-1.18.28c.12-1.15-1.14-1.09-1.56-1.76C129.84,76.54,129.84,76.13,130.38,76Z"/><path class="cls-6" d="M127.48,41.39a6.18,6.18,0,0,1-2.56-1.94A3.42,3.42,0,0,1,127.43,41,1,1,0,0,1,127.48,41.39Z"/><path class="cls-5" d="M114.53,77.22a9.51,9.51,0,0,1-2.87-2.08c1.29,0,2,1,2.93,1.63Z"/><path class="cls-53" d="M38.3,42.43c0-4.21.05-8.42,0-12.63,0-1.44.31-2,1.88-1.95,4.26.22,8.56-.33,12.8.58C60.29,30,63.82,34.71,63.7,42.82c-.11,7.55-4.23,12.61-11.31,13.88-4.32.78-8.67.29-13,.43-1.31,0-1.08-.9-1.08-1.67C38.29,51.12,38.3,46.78,38.3,42.43Z"/><path class="cls-54" d="M124.6,27.07l0,.41c-.64,0-.75.26-.4.77l0,.77c-.47.29,0,.54,0,.8-.08.42-.7.78-.12,1.25.16.15.31.31.46.46a1.47,1.47,0,0,0,0,.36c-.29.06-.69,0-.72.42s.44.54.7.77a1.7,1.7,0,0,1,0,.39c-.67,0-.71.29-.39.78l-.32.9.39.64-.4,1,.45.69-.5.48.34,1.14-.76.13c0-1.14-.05-2.28-.08-3.43,0-5-.23-10.08.12-15.12A5.37,5.37,0,0,0,127.3,20c0,.2,0,.4,0,.6l-.72.87c-.52.28-.78-.23-1.16-.37-.38.49-1.79-.19-1.35,1.21.3,0,.44.14.46.44a.84.84,0,0,0,0,.35c-.73,0-.75.27-.4.77-.15.53-.84,1.08.06,1.56a1.71,1.71,0,0,1,.27.14c-.15.37-1.17.43-.41,1.13Z"/><path class="cls-34" d="M134.42,89.39a9.52,9.52,0,0,1-3.51-2.4A6.1,6.1,0,0,1,134.42,89.39Z"/><path class="cls-45" d="M124.63,98c-.89-.94-2.3-1.27-3.24-2.7a11,11,0,0,1,3.4,1.95c.44.28.09.54-.16.75Z"/><path class="cls-55" d="M129.31,93.3c1.45.28,2.49,1.26,4.11,2.41A7.75,7.75,0,0,1,129.31,93.3Z"/><path class="cls-56" d="M131,83a4.13,4.13,0,0,1,3.29,2.16Z"/><path class="cls-57" d="M126.24,97.59l-3.06-2.36a6.64,6.64,0,0,1,3.57,2c.41.34-.29.27-.51.38Z"/><path class="cls-56" d="M120.8,47.77a5.72,5.72,0,0,1-3.52-2.3A8,8,0,0,1,120.8,47.77Z"/><path class="cls-58" d="M119,45.25c1.23.13,2.09.9,3.33,1.79C120.55,47.07,119.87,45.94,119,45.25Z"/><path class="cls-44" d="M121.6,45.63A3.14,3.14,0,0,1,124.28,47C122.83,47.13,122.4,46,121.6,45.63Z"/><path class="cls-34" d="M110.05,75.78l3.73,2.51-.28.41a15.08,15.08,0,0,1-3.74-2.47Z"/><path class="cls-38" d="M113.18,79.64a7.39,7.39,0,0,1-4-2.53C111.07,77.54,112,78.76,113.18,79.64Z"/><path class="cls-45" d="M111.39,80.79c-.34-1.09-1.74-1.13-2.41-2.57,1.63,1,3,1.51,3.93,2.72-.64.43-1-.42-1.55-.17Z"/><path class="cls-56" d="M113.26,72l3.33,2.29-.31.42c-1-.92-2.73-1-3.18-2.71Z"/><path class="cls-58" d="M115.49,71.29c1.76-.24,2.52,1.36,3.76,2.06-1.5-.07-2.36-1.4-3.66-1.87A.69.69,0,0,1,115.49,71.29Z"/><path class="cls-59" d="M112.14,72.78l3.91,2.71c-2-.12-2.75-1.74-4.18-2C111.82,73.23,111.77,72.93,112.14,72.78Z"/><path class="cls-58" d="M114.92,71.59l2.81,2.1c-1.25-.46-2.82-.47-3.14-2.19A.74.74,0,0,0,114.92,71.59Z"/><path class="cls-60" d="M134.28,53.94c-2.92.69-5.87.11-8.8.25,0-.83,0-1.67-1.19-1.9,2.95,0,5.9,0,8.84,0C134.41,52.27,134.21,53.17,134.28,53.94Z"/><path class="cls-19" d="M107,53.92A11.15,11.15,0,0,0,104.53,52h10.86c0,.12,0,.23,0,.34-1.36,0-2.69.32-4.08.25-.58,0-2-.46-2.28,1.21C108.89,54.57,107.71,54.3,107,53.92Z"/><path class="cls-27" d="M133.07,76.78l-1.91-.84c-.2-.39-1-.55-.71-1s.65.14,1,.24C131.92,75.78,132.78,76,133.07,76.78Z"/><path class="cls-45" d="M131,21.45c.08.72-.32.58-.68.35-1-.64-2-1.31-2.93-2,.65-.87,1.08.05,1.52.26A17.37,17.37,0,0,1,131,21.45Z"/><path class="cls-27" d="M124.58,22.71l-.46-.44c1.83-.6,2.37,1.36,3.78,1.58l-.22.46Z"/><path class="cls-34" d="M125.47,21.06l1.16.37,2.24,1.79A4.35,4.35,0,0,1,125.47,21.06Z"/><path class="cls-61" d="M40.81,30l.74.47c2.74,1.8,5.47,3.59,8.2,5.4a3.29,3.29,0,0,1,1,1A.86.86,0,0,1,50.6,38c-.31.26-.61,0-.89-.19Q45.29,34.85,40.83,32a1.31,1.31,0,0,1-.68-1.51C40.21,30.16,40.36,30,40.81,30Z"/><path class="cls-61" d="M40.71,45.35c.4.24.74.44,1.07.66q3.93,2.55,7.84,5.12a5.22,5.22,0,0,1,.82.57,1.21,1.21,0,0,1,.29,1.46c-.48.78-.93,0-1.28-.25-2.78-1.77-5.53-3.59-8.29-5.4-.5-.33-1-.61-1-1.34C40.12,45.72,40.25,45.42,40.71,45.35Z"/><path class="cls-13" d="M50.27,41.92l-1-.59-8-5.27c-.44-.28-1-.5-1.1-1.08a1.43,1.43,0,0,1,.15-.94c.23-.34.59-.14.87.05l9,5.92a1.38,1.38,0,0,1,.6,1.39C50.8,41.71,50.63,41.86,50.27,41.92Z"/><path class="cls-62" d="M50.81,44.88c0,.76-.28,1.07-.88.68q-4.78-3.11-9.56-6.23A.9.9,0,0,1,40,38.11c.17-.34.59-.28.89-.13,3.35,1.8,6.42,4,9.57,6.15C50.72,44.28,50.75,44.71,50.81,44.88Z"/><path class="cls-16" d="M40.66,41.57l.79.49q4.19,2.74,8.39,5.48c.67.43,1.36,1,.85,1.73s-1.17-.17-1.63-.46c-2.72-1.7-5.39-3.49-8.07-5.24a1.49,1.49,0,0,1-.88-1.45A.55.55,0,0,1,40.66,41.57Z"/><path class="cls-13" d="M44.33,30.05c4.39.24,7.07,3.79,10.59,5.76C50.51,35.62,47.86,32,44.33,30.05Z"/><path class="cls-22" d="M49.5,55a3.19,3.19,0,0,1-3-.14c-1.83-1.22-3.68-2.43-5.53-3.61-.71-.45-1.2-1.12-.71-1.81s1.06.15,1.47.41C44.22,51.42,46.68,53.09,49.5,55Z"/><path class="cls-62" d="M50.5,30.1c2-.12,3.38.92,4.82,1.87,1.23.8,2.47,1.58,3.68,2.4.52.36,1.46.8,1,1.43s-1.32.1-1.94-.31l-6.52-4.28C51.19,31,50.7,30.83,50.5,30.1Z"/><path class="cls-63" d="M43.68,55.27c-1.45.31-2.6.27-3.45-.83a1,1,0,0,1,0-1.3c.34-.41.7-.13,1,.13C42,53.87,43,54.13,43.68,55.27Z"/></svg>