<?xml version="1.0" encoding="utf-8"?>
<!-- Generator: Adobe Illustrator 26.1.0, SVG Export Plug-In . SVG Version: 6.00 Build 0)  -->
<svg version="1.1" id="Layer_1" xmlns="http://www.w3.org/2000/svg" xmlns:xlink="http://www.w3.org/1999/xlink" x="0px" y="0px"
	 viewBox="0 0 359 251" style="enable-background:new 0 0 359 251;" xml:space="preserve">
<style type="text/css">
	.st0{stroke:#23c483;stroke-width:4.5;stroke-miterlimit:10;}
</style>
<g>
	<g>
		<path class="st0" d="M55.4,79.8c-0.5,3.6-1.2,7-2.3,10.2c-1,3.2-2.8,5.9-5.2,8c-2.3,2-4.8,3.1-7.5,3.3c-1.4,0.1-2.9-0.1-4.6-0.5
			c-1.7-0.4-3.3-1-5-1.8c-1.7-0.8-3.2-1.7-4.7-2.7c-1.5-1-2.7-2-3.8-3.1c-1.8-1.9-3-4-3.7-6.1C17.9,85,17.8,83,18.2,81
			c0.4-1.9,1.4-3.7,2.9-5.3c1.5-1.6,3.6-2.9,6.3-3.9c1.4-0.5,3.2-1,5.3-1.4c2.1-0.4,4.1-0.6,5.9-0.7c1.7-0.1,3.1,0,3.9,0.3
			c0.8,0.3,1.3,0.8,1.3,1.5c0,0.7-0.2,1.2-0.7,1.5c-0.2,0.2-0.4,0.2-0.6,0.3c-0.1,0-0.3,0-0.5,0c-0.2,0-0.5-0.1-0.9-0.1
			c-0.3,0-0.6-0.1-1-0.1c-0.4,0-0.8,0-1.3,0.1c-1.2,0.1-2.7,0.2-4.6,0.5c-1.9,0.3-3.8,0.7-5.7,1.4c-1.9,0.7-3.5,1.6-5,2.7
			c-1.5,1.1-2.3,2.6-2.6,4.4c-0.4,2.2,0.1,4.3,1.5,6.3c1.3,2,3.1,3.7,5.2,5.1c2.1,1.4,4.4,2.6,6.8,3.4c2.4,0.8,4.5,1.2,6.3,1.1
			c2.1-0.1,4-1,5.8-2.7c1.8-1.7,3.1-3.7,4-6c0.5-1.4,1.1-3.5,1.6-6.2c0.5-2.7,1-5.7,1.3-8.9c0.4-3.3,0.7-6.6,0.8-10.1
			c0.2-3.5,0.2-6.7,0-9.7c-0.1-3-0.5-5.6-1.1-7.8c-0.6-2.2-1.4-3.6-2.5-4.1c-0.4-0.3-1-0.4-1.6-0.3c-1.1,0.1-2.3,0.6-3.8,1.4
			c-1.5,0.9-2.9,2-4.3,3.3c-1.4,1.3-2.8,2.8-4,4.4c-1.3,1.6-2.3,3.1-3,4.6c-0.7,1.5-1.1,2.8-1.1,3.9c0,1.1,0.5,1.9,1.5,2.4
			c0.5,0.2,1,0.3,1.6,0.4c0.6,0,1.1,0.1,1.7,0c0.9,0,1.7-0.1,2.4-0.3c0.7-0.1,1.1-0.2,1.2-0.2c0.4,0,0.7,0.1,0.9,0.3
			c0.2,0.2,0.4,0.5,0.4,0.9c0,0.4,0,0.7-0.2,1c-0.2,0.3-0.5,0.5-1,0.7c-1.3,0.5-2.7,0.8-4.1,0.9c-0.6,0-1.1,0-1.7,0
			c-0.5-0.1-1-0.1-1.5-0.3c-2-0.6-3.2-1.6-3.7-3.1c-0.5-1.5-0.4-3.2,0.1-5.1c0.6-1.9,1.5-4,2.9-6.1c1.4-2.1,2.9-4.1,4.7-5.9
			c1.8-1.8,3.6-3.3,5.6-4.5c1.9-1.2,3.7-1.9,5.4-2c1.4-0.1,2.6,0.3,3.6,1.1c1.1,0.9,2,2.2,2.7,4.1c0.7,1.9,1.1,4,1.4,6.4
			c0.3,2.4,0.4,4.9,0.4,7.7c0,2.7-0.1,5.4-0.3,8.1c-0.2,2.7-0.4,5.2-0.7,7.6C55.9,76.1,55.6,78.1,55.4,79.8z"/>
		<path class="st0" d="M78.6,67.3c1,0.5,2.2,1,3.7,1.4c1.4,0.4,2.8,0.8,4.2,1.1c1.4,0.3,2.6,0.6,3.6,0.9c1,0.3,1.6,0.6,1.8,1
			c0.2,0.4,0.3,0.9,0.2,1.3c-0.1,0.5-0.4,0.9-0.7,1.1c-0.2,0.2-0.8,0.4-1.6,0.6c-0.8,0.1-1.8,0.4-3,0.9c-1.2,0.5-2.5,1.2-4,2
			c-1.5,0.9-3,2.2-4.5,3.9c-1.6,1.7-2.6,3.4-3.2,5c-0.6,1.6-0.8,3.1-0.5,4.4c0.3,1.3,0.9,2.4,2,3.2c1,0.9,2.5,1.4,4.2,1.7
			c0.3,0,0.6,0.1,1,0c0.4,0,0.8,0,1.2-0.1c2.4-0.3,5.4-1.1,8.8-2.4c3.4-1.3,7-2.7,10.6-4.1c0.1,0,0.2,0,0.2-0.1c0,0,0.1-0.1,0.2-0.1
			c0.5-0.1,0.9,0.2,1.2,0.7c0.2,0.5,0.2,1.2-0.3,1.8c-0.3,0.5-1.4,1.1-3.2,1.9c-1.8,0.8-3.7,1.6-5.9,2.4c-2.2,0.8-4.3,1.5-6.4,2.1
			c-2.1,0.6-3.6,1-4.6,1.1c-3.8,0.4-6.7-0.2-8.8-2c-2.1-1.8-3.2-4-3.3-6.8c-0.1-2.8,0.9-5.7,3.1-8.9c2.1-3.2,5.5-5.9,10.2-8.4
			c-1.9-0.5-3.8-1.1-5.7-1.7c-1.9-0.6-3.5-1.7-4.9-3.1c-1.2-1.3-2-2.7-2.4-4.2c-0.4-1.6-0.5-3.2-0.4-4.9c0.2-1.7,0.6-3.5,1.3-5.3
			c0.7-1.8,1.6-3.5,2.5-5.1c1.2-2,2.7-3.9,4.4-5.8c1.7-1.8,3.6-3.5,5.6-5c2-1.5,4-2.8,6.1-3.7c2.1-1,4.2-1.7,6.1-1.9
			c2.4-0.3,4.3,0.5,5.3,2c1,1.5,1.4,3.4,1.3,5.7c-0.2,2.3-0.9,4.7-2.2,7.4c-1.3,2.6-2.9,5.1-5,7.2c-0.4,0.3-0.6,0.5-0.8,0.5
			c-0.4,0.1-0.7-0.1-1-0.5c-0.2-0.4-0.3-0.9-0.1-1.4c0-0.1,0.1-0.3,0.3-0.6c0.2-0.4,0.5-0.7,0.8-1.1c1.1-1.4,2.1-3.1,3-4.8
			c0.9-1.8,1.6-3.4,2-5c0.4-1.5,0.4-2.9,0.1-4c-0.3-1.1-1.2-1.8-2.6-1.9c-0.3,0-0.6,0-0.9,0c-0.3,0-0.6,0-0.9,0.1
			c-1.8,0.2-3.9,1-6.1,2.4c-2.2,1.3-4.4,3-6.5,4.9c-2.1,2-4,4.1-5.6,6.4c-1.7,2.3-2.9,4.6-3.6,6.8c-0.7,2.3-0.8,4.4-0.4,6.4
			C75,64.5,76.4,66.1,78.6,67.3z"/>
		<path class="st0" d="M145.3,70.9c1.1-0.2,2,0,2.4,0.5c0.4,0.4,0.5,1,0.3,1.6c-0.1,0.6-0.5,1-1.1,1.1c-0.4,0.1-0.8,0.1-1.3,0.2
			c-0.5,0.1-1.1,0.2-1.7,0.3c-0.6,0.1-1.1,0.3-1.6,0.4c-0.5,0.1-0.9,0.3-1.2,0.5c-0.1,0.1,0.1,0.3,0.7,0.7c0.6,0.3,1.2,0.8,2,1.5
			c0.8,0.6,1.5,1.4,2.2,2.2c0.7,0.9,1.1,1.8,1.3,2.9c0.2,1.3,0,2.4-0.6,3.5c-0.6,1-1.4,2-2.5,2.8c-1.1,0.8-2.4,1.5-3.9,2.1
			c-1.5,0.5-3,0.9-4.6,1.2c-1.8,0.3-3.5,0.4-5.3,0.3c-1.7-0.1-3.3-0.4-4.6-0.9c-1.3-0.5-2.4-1.2-3.1-2.1c-0.7-0.9-1-2.1-0.8-3.5
			c0.2-1.2,0.7-2.3,1.6-3.4c0.9-1.1,1.9-2.1,3-3c1.1-0.9,2.3-1.7,3.5-2.4c1.2-0.7,2.3-1.3,3.2-1.8c-3.2-1.4-6.3-2.9-9.4-4.3
			c-3-1.5-5.4-3.2-7.2-5.4c-1.8-2.1-2.5-4.8-2.4-8c0.2-3.2,1.9-7.4,5.1-12.4c2-3.1,4.1-5.8,6.5-8.3c2.4-2.5,4.7-4.6,7.1-6.4
			c2.4-1.8,4.7-3.3,6.9-4.4c2.2-1.1,4.2-1.8,5.9-2.1c0.8-0.1,1.6-0.2,2.3-0.1c1.7,0.2,3,1,3.8,2.4c0.8,1.4,1.3,3.1,1.3,5.1
			c0,2-0.3,4.2-0.9,6.6c-0.6,2.4-1.5,4.8-2.7,7.1c-0.4,0.6-0.8,1.5-1.4,2.5c-0.6,1-1.2,2.1-1.9,3.1c-0.7,1-1.3,1.9-2,2.7
			c-0.6,0.8-1.2,1.2-1.6,1.3c-0.4,0.1-0.7,0.1-1-0.2c-0.2-0.2-0.4-0.6-0.4-1c0-0.3,0.1-0.6,0.2-0.8c0.1-0.2,0.4-0.6,0.8-1
			c1.1-1.3,2.1-2.9,3.1-4.7c1-1.8,1.9-3.6,2.7-5.5c0.8-1.9,1.4-3.7,1.8-5.5c0.4-1.8,0.6-3.4,0.4-4.8c-0.1-1.4-0.6-2.4-1.3-3.2
			c-0.8-0.7-2-1-3.7-0.7c-1.6,0.3-3.3,0.9-5.4,2c-2,1.1-4.1,2.5-6.2,4.2c-2.1,1.7-4.2,3.6-6.2,5.6c-2,2.1-3.8,4.2-5.4,6.4
			c-1.6,2.2-2.8,4.4-3.8,6.6c-1,2.2-1.4,4.3-1.4,6.2c0,1.6,0.4,3,1.3,4.2c0.9,1.2,2.2,2.4,3.9,3.4c1.7,1.1,3.9,2.2,6.4,3.3
			c2.5,1.1,5.4,2.4,8.7,3.9c0.9-0.4,2-0.8,3.4-1.3c1.3-0.5,2.7-0.9,4-1.3C144.8,70.9,145,70.9,145.3,70.9z M136.7,77.3
			c-0.2,0-1,0.4-2.3,1.1c-1.3,0.7-2.7,1.5-4.2,2.4c-1.5,0.9-2.8,1.9-4,2.9c-1.2,1-1.7,2-1.7,2.7c0.1,0.8,0.6,1.4,1.6,1.8
			c0.9,0.4,2,0.7,3.2,0.8c1.2,0.1,2.4,0.2,3.7,0.1c1.2-0.1,2.1-0.1,2.7-0.2c2.7-0.4,4.8-1.2,6.5-2.3c1.6-1.1,2.4-2.1,2.3-2.9
			c-0.1-0.6-0.5-1.3-1.3-2.1c-0.8-0.7-1.6-1.5-2.5-2.1c-0.9-0.7-1.8-1.2-2.6-1.6C137.3,77.5,136.9,77.3,136.7,77.3z"/>
		<path class="st0" d="M167.1,28.5c0.3,0.2,0.5,0.4,0.5,0.6c0.1,0.2,0.1,1,0,2.4c0,1.4-0.1,3.6-0.1,6.6c-0.1,3.1-0.1,7.5-0.1,13.2
			c0,3.1,0.1,6.1,0.4,9c0.3,2.9,0.7,5.4,1.3,7.6c0.6,2.2,1.3,3.9,2.1,5.1c0.9,1.2,1.9,1.7,3.2,1.5c1.7-0.3,3.8-2.2,6.1-5.7
			c1.4-2.1,2.7-4.5,3.9-7.3c1.2-2.8,2.2-5.7,3.1-8.7c0.9-3,1.8-6,2.5-9c0.7-3,1.4-5.7,2-8.2c1-4.1,1.8-7.3,2.2-9.7
			c0.5-2.4,0.9-4.2,1.2-5.4c0.3-1.3,0.6-2.1,0.8-2.4c0.2-0.4,0.6-0.6,1-0.8c0.8-0.2,1.3,0.2,1.4,1.1c0.1,1,0.1,2,0,3.1
			c-0.1,2.4-0.1,4.8-0.1,6.8c0,2.1-0.1,4.3-0.1,6.6c0,2.3-0.1,4.9-0.2,7.8c-0.1,2.9-0.2,6.4-0.5,10.6c-0.4,5.9-0.6,10.7-0.6,14.1
			c0,3.5-0.1,6.1-0.1,7.8c0,1.8-0.1,2.9-0.3,3.4c-0.1,0.5-0.5,0.9-1.1,1c-0.5,0.1-1-0.1-1.3-0.5c-0.1-0.3-0.2-1.4-0.2-3.1
			c0-1.7,0-3.9,0.1-6.6c0.1-2.6,0.2-5.6,0.4-8.8c0.1-3.3,0.3-6.6,0.4-10c0.1-3.4,0.3-6.7,0.4-9.9c0.1-3.2,0.2-6.2,0.2-8.7
			c-0.5,1.9-1.1,4.3-1.7,7.2c-0.7,2.9-1.5,6-2.4,9.3c-0.9,3.3-2,6.6-3.1,9.9c-1.2,3.3-2.4,6.4-3.8,9.1c-1.4,2.8-2.9,5.1-4.6,6.9
			c-1.6,1.9-3.4,3-5.3,3.3c-2.3,0.4-4.2-0.4-5.5-2.3c-1.4-2-2.4-4.5-3.1-7.7c-0.7-3.1-1.1-6.5-1.3-10.2c-0.1-3.6-0.2-6.9-0.1-9.7
			c0.1-2.7,0.2-5.2,0.2-7.6c0-2.3,0-4.4,0.1-6.1c0.1-1.8,0.2-3.2,0.4-4.2c0.2-1,0.6-1.6,1-1.7C166.6,28.2,166.8,28.3,167.1,28.5z"/>
		<path class="st0" d="M241.2,54.2c1.1-0.2,2,0,2.4,0.5c0.4,0.4,0.5,1,0.3,1.6c-0.1,0.6-0.5,1-1.1,1.1c-0.4,0.1-0.8,0.1-1.3,0.2
			c-0.5,0.1-1.1,0.2-1.7,0.3c-0.6,0.1-1.1,0.2-1.6,0.4c-0.5,0.1-0.9,0.3-1.2,0.5c-0.1,0.1,0.1,0.3,0.7,0.7c0.6,0.3,1.2,0.8,2,1.5
			c0.8,0.6,1.5,1.4,2.2,2.3c0.7,0.9,1.1,1.9,1.3,2.9c0.2,1.3,0,2.4-0.6,3.5c-0.6,1-1.4,2-2.5,2.8c-1.1,0.8-2.4,1.5-3.9,2
			c-1.5,0.5-3,0.9-4.6,1.2c-1.8,0.3-3.5,0.4-5.3,0.3c-1.7-0.1-3.3-0.4-4.6-0.9c-1.3-0.5-2.4-1.2-3.1-2.1c-0.7-0.9-1-2.1-0.8-3.5
			c0.2-1.2,0.7-2.3,1.6-3.4c0.9-1.1,1.9-2.1,3-3c1.1-0.9,2.3-1.7,3.5-2.5c1.2-0.7,2.3-1.3,3.2-1.8c-3.2-1.4-6.3-2.8-9.4-4.3
			c-3-1.4-5.4-3.2-7.2-5.2c-1.8-2.1-2.5-4.8-2.4-8c0.2-3.2,1.9-7.4,5.1-12.6c2-3.1,4.1-5.9,6.5-8.4c2.4-2.5,4.7-4.7,7.1-6.5
			c2.4-1.8,4.7-3.3,6.9-4.4c2.2-1.1,4.2-1.8,5.9-2c0.8-0.1,1.6-0.1,2.3,0c1.7,0.2,3,1.1,3.8,2.5c0.8,1.4,1.3,3.1,1.3,5.1
			c0,2-0.3,4.2-0.9,6.6c-0.6,2.4-1.5,4.7-2.7,7c-0.4,0.6-0.8,1.5-1.4,2.5c-0.6,1-1.2,2.1-1.9,3.1c-0.7,1-1.3,1.9-2,2.7
			c-0.6,0.8-1.2,1.2-1.6,1.3c-0.4,0.1-0.7,0.1-1-0.2c-0.2-0.3-0.4-0.6-0.4-1c0-0.3,0.1-0.6,0.2-0.8c0.1-0.2,0.4-0.6,0.8-1
			c1.1-1.3,2.1-2.9,3.1-4.6c1-1.8,1.9-3.6,2.7-5.4c0.8-1.9,1.4-3.7,1.8-5.5c0.4-1.8,0.6-3.4,0.4-4.8c-0.1-1.4-0.6-2.4-1.3-3.2
			c-0.8-0.8-2-1-3.7-0.7c-1.6,0.2-3.3,0.9-5.4,2c-2,1.1-4.1,2.5-6.2,4.2c-2.1,1.7-4.2,3.6-6.2,5.7c-2,2.1-3.8,4.2-5.4,6.5
			c-1.6,2.2-2.8,4.5-3.8,6.7c-1,2.2-1.4,4.3-1.4,6.2c0,1.6,0.4,3,1.3,4.2c0.9,1.2,2.2,2.3,3.9,3.4c1.7,1,3.9,2.1,6.4,3.2
			c2.5,1.1,5.4,2.4,8.7,3.9c0.9-0.4,2-0.8,3.4-1.3c1.3-0.5,2.7-0.9,4-1.2C240.7,54.3,240.8,54.3,241.2,54.2z M232.6,60.6
			c-0.2,0-1,0.4-2.3,1.1c-1.3,0.7-2.7,1.5-4.2,2.4c-1.5,0.9-2.8,1.9-4,3c-1.2,1-1.7,2-1.7,2.7c0.1,0.8,0.6,1.4,1.6,1.8
			c0.9,0.4,2,0.6,3.2,0.8c1.2,0.1,2.4,0.2,3.7,0.1c1.2-0.1,2.1-0.1,2.7-0.2c2.7-0.4,4.8-1.2,6.5-2.3c1.6-1.1,2.4-2,2.3-2.9
			c-0.1-0.6-0.5-1.3-1.3-2.1c-0.8-0.7-1.6-1.5-2.5-2.2c-0.9-0.7-1.8-1.2-2.6-1.7C233.2,60.8,232.7,60.6,232.6,60.6z"/>
		<path class="st0" d="M47.1,193.6c0.4-0.4,0.9-0.9,1.5-1.6c0.6-0.7,1.2-1.5,1.8-2.4c0.6-0.9,1.3-1.8,1.9-2.7
			c0.6-0.9,1.2-1.8,1.7-2.5c1.3-2.2,2.1-4.1,2.4-5.7c0.4-1.6,0.4-3,0-4c-0.4-1.1-1-1.8-1.9-2.3c-0.9-0.5-2.1-0.7-3.4-0.6
			c-2,0.1-4.3,0.9-6.8,2.3c-3.1,1.7-6.1,4.3-8.9,7.6c-2.8,3.3-5.3,6.9-7.5,10.9c-2.2,3.9-4,8-5.4,12.2c-1.4,4.2-2.3,8-2.7,11.6
			c-0.4,3.6-0.3,6.6,0.4,9.2c0.7,2.5,2.1,4.1,4.2,4.7c0.6,0.1,1,0.2,1.3,0.2c1.2,0,2.4-0.4,3.7-1c1.3-0.7,2.4-1.4,3.3-2.1
			c1-0.8,2.2-2,3.6-3.4c1.4-1.4,2.8-2.9,4.2-4.6c1.4-1.7,2.8-3.4,4.2-5.1c1.4-1.8,2.6-3.3,3.7-4.8c1.1-1.4,2.3-3,3.6-4.9
			c-0.1,0-0.2,0-0.3,0c-0.5,0-1.4,0.2-2.9,0.5c-1.4,0.3-2.9,0.5-4.6,0.5c-1.6,0.1-3,0-4.4-0.3c-1.4-0.3-2.2-1.1-2.6-2.3
			c-0.2-0.7-0.1-1.3,0.5-1.8c0.2-0.2,0.4-0.2,0.6-0.2c0.3,0,0.7,0.3,1.2,0.7c0.6,0.6,1.8,0.8,3.4,0.7c0.8,0,1.7-0.1,2.7-0.3
			c1-0.1,2.1-0.4,3.3-0.5c0.4,0,1-0.1,1.8-0.2c0.8-0.1,1.7-0.3,2.7-0.4c1-0.1,2.1-0.3,3.2-0.5c1.1-0.2,2.1-0.3,3.1-0.4
			c2.1-0.2,3.6-0.1,4.3,0.2c0.8,0.4,1.2,1,1,1.8c-0.2,0.9-0.7,1.3-1.4,1.3c-0.3,0-0.8,0-1.6,0c-0.8,0.1-1.7,0.1-2.7,0.2
			c-1.1,0.1-1.6,0.1-2.7,0.2c0.1,0.4,0.1,1.2,0,2.5c0,1.2-0.1,2.5-0.1,3.8c0,1.3-0.1,2.6-0.1,3.8c-0.1,1.2-0.1,2-0.1,2.5
			c-0.1,3.5-0.1,6.1-0.1,7.9c0.1,1.8,0.1,3.1,0.2,3.9c0.1,0.8,0.1,1.3,0.1,1.4c0,0.1-0.1,0.4-0.4,0.7c-0.3,0.4-0.6,0.6-1,0.6
			c-0.2,0-0.7-0.1-1-0.5c-0.4-0.4-0.6-1.5-0.7-3.1c-0.1-1.6-0.1-3.5,0-5.7c0.1-2.2,0.1-4.6,0.3-7.2c0.1-2.6,0.2-5,0.2-7.4
			c0-0.1-0.4,0.3-1.1,1.3c-0.7,1-1.7,2.3-2.9,3.9c-1.2,1.6-2.6,3.4-4.2,5.3c-1.6,1.9-3.2,3.9-4.8,5.8c-1,1.2-2.1,2.4-3.4,3.7
			c-1.2,1.2-2.5,2.3-3.8,3.3c-1.3,1-2.6,1.8-3.9,2.5c-1.3,0.7-2.7,1-4,1c-1.8,0-3.6-0.6-5.1-2c-1.8-1.6-3-3.8-3.6-6.4
			c-0.5-2.6-0.7-5.4-0.4-8.5c0.3-3,0.9-6.1,1.7-9.1c0.9-3.1,1.8-5.9,2.8-8.4c2.1-5.3,4.4-9.9,7-13.7c2.6-3.8,5.2-7,7.8-9.5
			c2.6-2.5,5.2-4.4,7.8-5.6c2.6-1.2,4.9-1.9,7-2.1c2.2-0.2,4.1,0.3,5.5,1.3c1.5,1,2.4,2.5,2.8,4.6c0.4,2,0,4.5-1,7.4
			c-1,2.9-2.9,6.2-5.7,9.8c-1,1.2-1.9,2.3-2.8,3.3c-0.9,1-1.6,1.6-2.1,1.8c-0.1,0-0.1,0-0.2,0.1c-0.1,0-0.1,0.1-0.2,0.1
			c-0.4,0-0.7-0.1-0.9-0.4c-0.3-0.3-0.3-0.7-0.2-1.2C46.3,194.7,46.6,194.1,47.1,193.6z"/>
		<path class="st0" d="M98.6,162.7c0.3,0,0.6,0,0.8,0c0.2,0,0.5,0.1,0.8,0.2c1.1,0.4,2,1.4,2.6,3.1c0.6,1.7,1,3.8,1.3,6.2
			c0.3,2.4,0.5,4.9,0.5,7.6c0,2.7,0,5.2,0,7.5c-0.1,2.3-0.1,4.3-0.1,5.9c0,1.6,0,2.5,0.1,2.7c0.1,0.1,0.3,0.1,0.7,0
			c0.4-0.1,0.9-0.1,1.4-0.1c0.6,0,1.1,0,1.7,0c0.6,0,1.1,0.2,1.5,0.4c0.5,0.3,0.8,0.7,0.8,1.2c0.1,0.5-0.1,1-0.5,1.4
			c-0.2,0.2-0.4,0.4-0.7,0.4c-0.4,0.1-0.9,0-1.6-0.1c-0.7-0.1-1.8-0.1-3.4,0c0.1,1.4,0.2,3,0.4,4.7c0.1,1.7,0.3,3.4,0.5,5.1
			c0.2,1.7,0.6,3.3,0.9,4.9c0.4,1.6,0.9,2.9,1.5,4.1c0.2,0.3,0.4,0.8,0.8,1.4c0.3,0.6,0.7,1.1,1.1,1.7c0.4,0.6,0.8,1,1.2,1.5
			c0.4,0.4,0.8,0.6,1.2,0.6c0.5,0,0.9,0.2,1.1,0.5c0.2,0.3,0.2,0.7,0.1,1.1c-0.1,0.4-0.3,0.8-0.5,1.1c-0.3,0.3-0.6,0.5-1.1,0.6
			c-0.8,0.1-1.6-0.2-2.4-1c-0.8-0.8-1.6-1.8-2.3-2.9c-0.7-1.2-1.3-2.4-1.9-3.6c-0.5-1.2-0.9-2.2-1.1-2.9c-0.8-2.7-1.3-5.5-1.5-8.4
			c-0.2-2.8-0.4-5.5-0.5-8.1c-0.5,0.1-0.8,0.1-1.3,0.2c-2.2,0.3-4.4,0.7-6.4,1.2c-2.1,0.5-3.9,1-5.6,1.4c-1.6,0.5-3,0.8-4,1.2
			c-1,0.3-1.5,0.5-1.5,0.6c-0.1,0.1-0.2,0.8-0.4,2c-0.2,1.3-0.5,2.6-0.8,4.1c-0.3,1.5-0.6,2.9-0.9,4.3c-0.3,1.4-0.7,2.3-0.9,2.8
			c-0.2,0.4-0.6,0.7-1.1,0.8c-0.7,0.1-1.1-0.3-1.4-1.3c-0.1-0.2-0.1-0.9-0.1-2c0-1.1,0-2.3,0-3.6c0-1.3,0-3-0.1-5.1
			c-0.1-0.1-0.4,0.1-1.1,0.4c-0.7,0.4-1.1,0.6-1.3,0.8c-0.3,0.2-0.6,0.4-0.8,0.4c-0.4,0-0.7-0.2-1-0.6c-0.2-0.4-0.2-1,0-1.6
			c0.2-0.4,0.5-0.7,0.9-1c0.4-0.3,0.9-0.6,1.3-0.8c0.5-0.3,0.9-0.5,1.3-0.6c0.4-0.2,0.6-0.3,0.7-0.3c0-0.1,0-0.7,0-1.9
			c0-1.2,0-2.5,0-3.9c0-1.5,0-2.8,0-4.1c0-1.3,0.1-2.1,0.2-2.3c0.2-0.5,0.6-0.8,1.1-0.9c0.4,0,0.7,0.1,1,0.4c0.1,0.1,0.2,0.8,0.3,2
			c0.1,1.2,0.1,2.5,0.1,3.9c0,1.4,0,2.7,0,3.8c0,1.1,0,1.7,0,1.8c0.4-0.2,0.6-0.3,0.6-0.3c0.1,0,0.1-0.4,0.3-1
			c0.1-0.6,0.3-1.6,0.6-3c0.3-1.4,0.8-3.5,1.6-6.4c0.7-2.4,1.5-5.2,2.6-8.3c1.1-3.1,2.3-6.2,3.7-9.1c1.4-2.9,2.8-5.4,4.4-7.5
			C95.4,164.1,97,162.9,98.6,162.7z M101.8,196.3c-0.1-2.2-0.1-4.8,0-7.9c0.1-3.1,0-6.1,0-9.1c-0.1-3-0.3-5.7-0.6-8.1
			c-0.3-2.4-0.8-4-1.6-4.8c-0.2-0.3-0.6-0.4-1-0.3c-0.6,0.1-1.3,0.6-2,1.4c-0.7,0.9-1.5,1.9-2.2,3c-0.7,1.1-1.4,2.3-2.1,3.6
			c-0.7,1.2-1.2,2.3-1.5,3.1c-1,2.2-1.9,4.7-2.8,7.3c-0.9,2.6-1.7,5.1-2.3,7.4c-0.6,2.3-1.1,4.2-1.5,5.8c-0.4,1.6-0.5,2.5-0.5,2.7
			c0,0.1,0.3,0,0.9-0.3c0.6-0.3,1.6-0.6,3-1c1.4-0.4,3.2-0.9,5.5-1.4C95.6,197.3,98.4,196.8,101.8,196.3z"/>
		<path class="st0" d="M159.2,159.4c-0.3-0.1-0.8,0.3-1.5,1.1c-0.7,0.8-1.5,2.1-2.4,3.7s-1.8,3.8-2.8,6.2c-1,2.5-1.9,5.4-2.8,8.7
			c-0.8,3.2-1.6,6.2-2.1,8.9c-0.6,2.6-1.1,4.4-1.6,5.2c-0.3,0.6-0.8,0.9-1.3,1c-0.7,0.1-1.2-0.4-1.5-1.4c-0.3-1-0.4-2.6-0.5-4.9
			c-0.1-2.3-0.1-4.8-0.2-7.5c0-2.7-0.1-5.4-0.1-8.1c-0.1-2.7-0.2-4.9-0.5-6.6c0-0.2-0.1-0.6-0.2-1.1c-0.1-0.5-0.2-1.1-0.4-1.6
			c-0.1-0.5-0.3-1-0.4-1.5c-0.2-0.4-0.4-0.6-0.5-0.6c-0.4,0-1.2,0.9-2.1,2.6c-0.9,1.7-1.8,3.7-2.6,5.9c-1,2.6-1.9,5.6-2.8,8.9
			c-0.9,3.3-1.7,6.7-2.5,10.1c-0.7,3.4-1.4,6.7-2.1,10c-0.6,3.3-1.2,6.3-1.7,8.9c-0.5,2.7-0.8,4.8-1.1,6.6c-0.3,1.7-0.5,2.7-0.6,2.9
			c-0.3,0.8-0.7,1.2-1.3,1.3c-0.4,0.1-0.7-0.1-1-0.4c-0.2-0.2-0.4-1-0.5-2.5c-0.1-1.5-0.1-3.3-0.2-5.5c0-2.2,0-4.6,0-7.3
			c0.1-2.7,0.1-5.3,0.2-8c0.1-2.7,0.2-5.2,0.3-7.6c0.1-2.4,0.1-4.4,0.1-6c0-1.5,0.1-2.7,0.1-3.6c0-0.8,0.1-1.5,0.1-1.9
			c0-0.4,0.1-0.8,0.1-0.9c0.1-0.2,0.1-0.4,0.2-0.5c0.2-0.4,0.6-0.6,1-0.7c0.5-0.1,0.9,0.2,1.1,0.7c0.1,0.3,0.2,1,0.2,2.2
			c0,1.2,0,2.6,0,4.3c0,1.7-0.1,3.6-0.1,5.6c-0.1,2-0.1,4-0.2,6c-0.1,1.9-0.1,3.7-0.1,5.4c0,1.6,0,2.9,0,3.9
			c0.3-1.5,0.7-3.6,1.2-6.3c0.5-2.7,1.1-5.6,1.9-8.8c0.7-3.2,1.6-6.4,2.5-9.7c0.9-3.3,1.9-6.3,3-9.1c1.1-2.8,2.2-5,3.4-6.9
			c1.2-1.8,2.3-2.8,3.5-3c1.3-0.2,2.2,0.5,2.9,2c0.7,1.6,1.2,3.5,1.4,5.8c0.3,2.3,0.4,4.7,0.5,7.2c0.1,2.5,0.1,4.7,0.1,6.3
			c0,2.6,0.1,4.4,0,5.4c0,1,0,1.5,0.1,1.5c0-0.2,0.1-0.3,0.1-0.6c0.1-0.2,0.1-0.5,0.3-1.1c0.4-1.5,1-3.8,1.8-6.7c0.8-3,1.8-6,3-9.1
			c1.2-3.1,2.5-5.9,4-8.3c1.5-2.4,3-3.7,4.6-4c0.5-0.1,0.9-0.1,1.3,0.1c1.4,0.6,2.3,2.2,2.7,5.1c0.4,2.8,0.5,6.4,0.4,10.6
			c-0.1,4.2-0.2,8.9-0.4,14c-0.2,5.2-0.2,10.4,0.1,15.5c0.1,2.5,0.4,4.6,0.6,6.3c0.2,1.7,0.4,3.1,0.5,4.3c0.1,1.1,0.2,2,0.3,2.6
			c0,0.6,0,1-0.2,1.3c-0.2,0.6-0.6,0.9-1.2,1c-0.2,0-0.4,0-0.6-0.1c-0.3-0.1-0.5-0.5-0.6-0.9c-0.1-0.4-0.3-1.4-0.5-3.1
			c-0.7-5.3-1-10.2-1.2-14.8c-0.1-4.6-0.1-8.9,0-12.9c0.1-4,0.2-7.7,0.4-11c0.1-3.4,0.1-6.4-0.1-9c-0.1-1.6-0.3-2.9-0.6-3.9
			C159.8,160.1,159.5,159.5,159.2,159.4z"/>
		<path class="st0" d="M195.4,177.7c-1.2,1.2-1.8,1.8-1.9,1.8c-0.1,0,0.1,0.1,0.4,0.1c0.9,0,2.2,0,3.8-0.1c1.7,0,3.3,0.2,5,0.6
			c3,0.8,5.2,2,6.4,3.8c1.2,1.7,1.7,3.8,1.5,6c-0.2,2.3-1,4.6-2.4,7.1c-1.4,2.5-3.1,4.8-5.3,6.9c-2.2,2.2-4.6,4.1-7.4,5.7
			c-2.7,1.6-5.5,2.7-8.4,3.2c-2,0.4-4,0.4-6,0.1c-2-0.3-3.9-1-5.8-2.1c-2-1.2-3.4-2.7-4.3-4.5c-0.9-1.7-1.2-3.6-0.8-5.5
			c0.3-1.9,1.3-3.9,3-5.9c1.6-2,4-3.9,7-5.7c0.1-6.6,0.1-11.8,0-15.4c0-3.7,0-6.4,0-8.1c0.1-1.8,0.2-2.8,0.4-3.2
			c0.2-0.4,0.5-0.7,1-0.8c0.4-0.1,0.8,0,1,0.2c0.2,0.2,0.5,0.6,0.5,1c0.4,2.2,0,4.6,0,5.7c0,1.1,0,1.6,0,1.6c0.1,0,0.4-0.7,0.8-2.1
			c0.4-1.4,1-3.1,2-5.2c0.9-2.1,2.2-4.2,3.7-6.6c1.5-2.3,3.6-4.5,6.1-6.4c2.4-1.9,4.6-3,6.6-3.4c2.3-0.4,4.1,0.2,5.3,1.7
			c1.2,1.6,1.7,3.8,1.3,6.7c-0.3,2.9-1.6,6.4-3.7,10.3C203.2,169.1,199.9,173.3,195.4,177.7z M188.9,186.4c1.4-0.2,2.7-0.4,3.8-0.5
			c1.2-0.1,2,0.1,2.5,0.4c0.2,0.1,0.4,0.3,0.5,0.6c0.1,0.3,0.2,0.6,0.2,0.8c0,0.9-0.4,1.5-1.3,1.6c-0.1,0-0.3,0-0.4,0.1
			s-0.4,0-0.7-0.1c-0.4-0.1-1.2-0.1-2.1,0c-1,0.1-1.9,0.2-3,0.4c-1.4,0.2-2.6,0.5-3.7,0.9c-1.1,0.3-1.7,0.7-1.7,1
			c0,0.4-0.1,0.8-0.4,1.2c-0.3,0.4-0.6,0.6-0.9,0.7c-0.5,0.1-0.9-0.2-1.3-0.9c-1.1,0.7-2.1,1.4-2.9,2.1c-0.9,0.7-1.8,1.7-2.8,3
			c-0.7,0.9-1.1,1.7-1.3,2.4c-0.2,0.7-0.3,1.5-0.3,2.3c0,0.8,0.4,1.8,1.1,2.8c0.7,1,1.7,1.9,3,2.6c1.3,0.8,2.7,1.3,4.5,1.7
			c1.7,0.4,3.6,0.4,5.6,0c0.4-0.1,0.8-0.2,1.3-0.3c0.4-0.1,0.8-0.2,1.3-0.4c2.4-0.8,4.8-2,7.2-3.7c2.4-1.7,4.5-3.5,6.3-5.6
			c1.8-2.1,3.1-4.2,4-6.3c0.9-2.2,1-4.1,0.4-5.7c-0.6-1.6-2.1-2.9-4.6-3.8c-2.4-0.9-6-1.1-10.9-0.6c-0.4,0-0.9,0-1.3,0.1
			c-0.5,0-0.9,0.1-1.3,0c-0.4,0-0.7-0.2-0.9-0.4c-0.2-0.2-0.4-0.6-0.4-1.1c0-0.7,0.3-1.4,0.8-1.9c0.5-0.5,1.4-1.4,2.6-2.5
			c1.5-1.4,3-2.9,4.6-4.6c1.6-1.7,3.1-3.5,4.5-5.4c1.4-1.9,2.6-3.9,3.6-6c1-2.1,1.7-4.2,2-6.5c0.3-2,0-3.4-0.8-4.2
			c-0.8-0.8-1.9-1.1-3.3-0.8c-0.5,0.1-1,0.2-1.5,0.5c-0.5,0.2-1.1,0.5-1.7,0.8c-2.7,1.6-5,3.8-6.9,6.5c-1.9,2.7-3.5,5.6-4.7,8.9
			c-1.3,3.3-2.2,6.7-2.9,10.4c-0.7,3.6-1.1,7.3-1.4,10.9c0.5-0.2,1.3-0.4,2.4-0.7C186.5,186.9,187.7,186.6,188.9,186.4z"/>
		<path class="st0" d="M244.6,138.3c0.3,0,0.6-0.1,0.8,0c0.2,0,0.5,0.1,0.8,0.2c1.1,0.3,2,1.4,2.6,3.1c0.6,1.7,1,3.8,1.3,6.2
			c0.3,2.4,0.5,4.9,0.5,7.6c0,2.7,0,5.2,0,7.5c-0.1,2.3-0.1,4.3-0.1,5.9c0,1.6,0,2.5,0.1,2.7c0.1,0.1,0.3,0.1,0.7,0
			c0.4-0.1,0.9-0.1,1.4-0.1c0.6,0,1.1,0,1.7,0c0.6,0,1.1,0.2,1.5,0.4c0.5,0.3,0.8,0.7,0.8,1.2c0.1,0.5-0.1,1-0.5,1.4
			c-0.2,0.2-0.4,0.4-0.7,0.4c-0.4,0.1-0.9,0-1.6-0.1c-0.7-0.1-1.8-0.1-3.4,0.1c0.1,1.4,0.2,3,0.4,4.7c0.1,1.7,0.3,3.4,0.5,5
			c0.2,1.7,0.6,3.3,0.9,4.9c0.4,1.6,0.9,2.9,1.5,4.1c0.2,0.3,0.4,0.8,0.8,1.4c0.3,0.6,0.7,1.1,1.1,1.7c0.4,0.6,0.8,1,1.2,1.5
			c0.4,0.4,0.8,0.6,1.2,0.7c0.5,0,0.9,0.2,1.1,0.5c0.2,0.3,0.2,0.7,0.1,1.1c-0.1,0.4-0.3,0.8-0.5,1.1c-0.3,0.3-0.6,0.5-1.1,0.6
			c-0.8,0.1-1.6-0.2-2.4-1c-0.8-0.8-1.6-1.8-2.3-2.9c-0.7-1.2-1.3-2.4-1.9-3.6c-0.5-1.2-0.9-2.2-1.1-2.9c-0.8-2.7-1.3-5.5-1.5-8.3
			c-0.2-2.8-0.4-5.5-0.5-8c-0.5,0.1-0.8,0.1-1.3,0.2c-2.2,0.3-4.4,0.8-6.4,1.3c-2.1,0.5-3.9,1.1-5.6,1.6c-1.6,0.5-3,1-4,1.4
			c-1,0.4-1.5,0.6-1.5,0.7c-0.1,0.1-0.2,0.8-0.4,2c-0.2,1.3-0.5,2.7-0.8,4.2c-0.3,1.5-0.6,2.9-0.9,4.3c-0.3,1.4-0.7,2.4-0.9,2.8
			c-0.2,0.4-0.6,0.8-1.1,0.8c-0.7,0.1-1.1-0.3-1.4-1.2c-0.1-0.2-0.1-0.9-0.1-2c0-1.1,0-2.3,0-3.6c0-1.3,0-3-0.1-5.1
			c-0.1-0.1-0.4,0.1-1.1,0.5c-0.7,0.4-1.1,0.7-1.3,0.9c-0.3,0.3-0.6,0.4-0.8,0.5c-0.4,0.1-0.7-0.1-1-0.5c-0.2-0.4-0.2-1,0-1.6
			c0.2-0.4,0.5-0.8,0.9-1.1c0.4-0.3,0.9-0.6,1.3-0.9c0.5-0.3,0.9-0.5,1.3-0.7c0.4-0.2,0.6-0.3,0.7-0.4c0-0.1,0-0.7,0-1.9
			c0-1.2,0-2.5,0-3.9c0-1.5,0-2.8,0-4.2c0-1.3,0.1-2.1,0.2-2.3c0.2-0.5,0.6-0.9,1.1-0.9c0.4-0.1,0.7,0.1,1,0.4
			c0.1,0.1,0.2,0.8,0.3,2c0.1,1.2,0.1,2.5,0.1,3.9c0,1.4,0,2.7,0,3.8c0,1.1,0,1.7,0,1.8c0.4-0.2,0.6-0.3,0.6-0.4
			c0.1,0,0.1-0.4,0.3-1c0.1-0.6,0.3-1.6,0.6-3c0.3-1.4,0.8-3.6,1.6-6.5c0.7-2.4,1.5-5.3,2.6-8.4c1.1-3.2,2.3-6.3,3.7-9.2
			c1.4-2.9,2.8-5.5,4.4-7.6C241.5,139.8,243,138.6,244.6,138.3z M247.9,171.8c-0.1-2.2-0.1-4.8,0-7.9c0.1-3.1,0-6.1,0-9.1
			c-0.1-3-0.3-5.7-0.6-8.1c-0.3-2.4-0.8-4-1.6-4.7c-0.2-0.3-0.6-0.3-1-0.3c-0.6,0.1-1.3,0.6-2,1.5c-0.7,0.9-1.5,1.9-2.2,3.1
			c-0.7,1.2-1.4,2.4-2.1,3.7c-0.7,1.3-1.2,2.3-1.5,3.2c-1,2.3-1.9,4.7-2.8,7.4c-0.9,2.7-1.7,5.1-2.3,7.5c-0.6,2.3-1.1,4.3-1.5,5.9
			c-0.4,1.6-0.5,2.5-0.5,2.7c0,0.1,0.3,0,0.9-0.3c0.6-0.3,1.6-0.7,3-1.1c1.4-0.4,3.2-1,5.5-1.6C241.6,172.9,244.5,172.4,247.9,171.8
			z"/>
		<path class="st0" d="M272.9,172c0.5-1.5,0-4.3,0-6.1c0-1.7,0.1-3.6,0.1-5.6c0-2,0.1-3.9,0.1-5.6c0-1.7,0.1-3.2,0.1-4.5
			c0-1.2,0-1.9,0-2c0.2-0.8,0.6-1.3,1.3-1.4c0.4-0.1,0.7,0.1,1,0.3c0.2,0.2,0.3,0.7,0.4,1.6c0.1,0.9,0.1,2,0,3.4
			c0,1.3-0.1,2.9-0.1,4.6c0,1.7,0,3.5,0,5.4c0,0.6,0,0.9,0,1.4c0.1,0,0.2-0.4,0.4-1.2c0.8-2.9,1.9-6,3.2-9.4
			c1.3-3.4,2.8-6.6,4.5-9.5c1.7-3,3.6-5.5,5.6-7.6c2-2.1,4.2-3.2,6.4-3.5c0.2,0,0.5,0,0.7-0.1c0.2,0,0.5,0,0.7,0
			c1.4,0.2,2.8,0.7,4,1.5c1.2,0.9,2.2,2.1,3,3.7c0.8,1.6,1.3,3.6,1.5,5.9c0.2,2.3,0,5.1-0.7,8.1c-0.7,3.6-1.7,6.9-3.1,9.7
			c-1.3,2.8-2.8,5.4-4.4,7.5c-1.6,2.2-3.2,4-4.9,5.5c-1.7,1.5-3.2,2.8-4.6,3.8c-1.4,1-2.5,1.8-3.4,2.3c-0.9,0.5-1.4,0.8-1.6,0.9
			c0.9,1.3,1.9,2.6,3.1,4c1.2,1.4,2.4,2.6,3.8,3.7c1.3,1.1,2.8,1.9,4.2,2.6c1.5,0.6,3,0.9,4.6,0.7c1-0.1,2.1-0.3,3.3-0.5
			c1.2-0.2,2.1-0.5,2.8-1c0.4-0.2,0.6-0.3,0.8-0.3c0.8-0.1,1.2,0.3,1.3,1.1c0.1,0.8-0.3,1.6-1.1,2.2c-0.5,0.4-1.4,0.8-2.7,1.1
			c-1.3,0.3-2.6,0.5-3.9,0.6c-0.8,0.1-1.6,0.1-2.4,0.1c-0.7,0-1.4-0.1-2.1-0.2c-1.8-0.5-3.6-1.4-5.4-2.8c-1.7-1.4-3.3-2.9-4.6-4.3
			c-1.3-1.5-2.4-2.8-3.3-3.9c-0.8-1.1-1.3-1.7-1.4-1.7c-0.3,0.1-0.7,0.2-1.1,0.4c-0.4,0.2-0.9,0.3-1.3,0.4c-0.4,0.1-0.9,0.2-1.2,0.3
			c-0.4,0.1-0.6,0.2-0.8,0.2c0,0.5,0,1.5,0,3c0,1.5-0.1,3-0.1,4.5c0,1.5-0.1,2.9-0.1,4.1c0,1.2,0,1.8,0,1.9c-0.1,0.5-0.3,0.8-0.6,1
			c-0.3,0.2-0.5,0.3-0.6,0.4c-0.2,0-0.4-0.1-0.7-0.2c-0.3-0.2-0.5-0.4-0.6-0.8c0-0.1,0-0.5,0-1.3s0-1.8,0-3c0-1.2,0-2.7,0-4.4
			c0-1.7,0-3.5,0-5.4c-2.4-0.4-4.1-1.2-5.1-2.5c-1-1.2-1.5-2.5-1.5-3.9c0-1.3,0.5-2.6,1.3-3.7c0.9-1.1,2-1.8,3.4-2
			c0.8-0.1,1.3-0.1,1.5,0C272.7,172.1,272.9,172.1,272.9,172z M270.9,175.3c-0.6,0.1-1.1,0.3-1.4,0.7c-0.3,0.4-0.5,0.8-0.5,1.3
			c0,0.5,0.1,1,0.4,1.4c0.3,0.5,0.8,0.9,1.5,1.2c0.3,0.2,0.6,0.3,1,0.5c0.4,0.1,0.6,0.2,0.8,0.2c0.1,0,0.1-0.3,0.1-0.8
			c0-0.5,0-1.1,0-1.6c0-0.6,0-1.4-0.1-2.5c-0.1-0.1-0.3-0.1-0.6-0.2c-0.4-0.1-0.7-0.1-1-0.1C271.1,175.3,271,175.3,270.9,175.3z
			 M275.5,180.7c0.2,0,0.7-0.1,1.3-0.2c0.6-0.1,1-0.2,1.1-0.3c0.1-0.1,0-0.3-0.3-0.6c-0.3-0.3-0.8-0.9-1.6-1.8c0,0.6,0,1,0,1.2
			c0,0.2-0.1,0.3-0.1,0.4c-0.1,0.1-0.1,0.2-0.2,0.4C275.6,179.9,275.5,180.2,275.5,180.7z M288.5,141.3c-2.1,2.9-4,6.2-5.5,10
			c-1.6,3.7-2.8,7.2-3.8,10.5c-1,3.3-1.7,6.1-2.1,8.4c-0.4,2.3-0.6,3.5-0.6,3.7c0.1,0.1,0.2,0.1,0.3,0.2c0.1,0.1,0.1,0.1,0.2,0.2
			c0.1,0.1,0.2,0.2,0.3,0.3c0.4,0.3,0.8,0.7,1.2,1.2c0.4,0.5,0.9,1,1.2,1.4c0.4,0.5,0.8,1,1.3,1.7c0.2,0,1-0.4,2.2-1.2
			c1.2-0.8,2.7-1.8,4.4-3.2c1.7-1.3,3.4-2.9,5.1-4.6c1.8-1.7,3.3-3.6,4.5-5.6c1.2-2,2.3-4.3,3.3-7c1-2.6,1.7-5.3,2.1-7.9
			c0.4-2.6,0.4-5.1-0.1-7.4c-0.4-2.3-1.5-4-3.1-5.2c-1.1-0.8-2.4-1.2-3.7-1.1c-1.3,0.1-2.6,0.7-3.8,1.7
			C290.9,138.6,289.7,139.8,288.5,141.3z"/>
		<path class="st0" d="M336.2,192.5c-0.7,0.2-1.5,0.4-2.2,0.4c-2.2,0.1-4.2-0.7-6.1-2.4c-1.8-1.7-3.1-4.3-3.8-7.8
			c-0.2-0.8-0.3-1.5-0.4-2.1c-0.1-0.6-0.1-1.3-0.1-2.1c0-0.8,0-1.7,0-2.8c0-1.1,0-2.4,0-4c-2.7-0.9-4.5-2.6-5.3-4.9
			c-0.8-2.3-0.9-5-0.4-8.1c0.5-3.1,1.6-6.2,3.2-9.5c1.6-3.3,3.5-6.3,5.6-9c2.1-2.8,4.4-5,6.8-6.8c2.4-1.8,4.7-2.7,6.7-2.7
			c0.8,0,1.5,0.1,2.1,0.3c1.6,0.5,3,1.7,4.1,3.6c1.1,1.9,2,4.3,2.7,7.1c0.7,2.8,1.1,5.9,1.3,9.4c0.2,3.5,0.1,7-0.1,10.5
			c-0.3,3.6-0.8,7.1-1.5,10.5c-0.7,3.5-1.7,6.6-2.9,9.4c-1.2,2.8-2.5,5.2-4.2,7.2C340.1,190.5,338.3,191.8,336.2,192.5z M326,172.2
			c0,1.7,0.1,3.5,0.2,5.6c0.1,2,0.5,3.9,1,5.7c0.5,1.8,1.3,3.2,2.4,4.4c1.1,1.2,2.5,1.7,4.4,1.6c2.4-0.1,4.5-1.4,6.3-3.8
			c1.8-2.5,3.2-5.6,4.3-9.4c1.1-3.8,1.9-7.9,2.4-12.4c0.5-4.5,0.6-8.7,0.4-12.8c-0.2-4-0.7-7.6-1.6-10.6c-0.9-3-2-5-3.5-5.8
			c-0.7-0.3-1.4-0.5-2.1-0.5c-1.6,0-3.5,0.8-5.6,2.3c-2.1,1.5-4.2,3.5-6.1,5.9c-2,2.5-3.7,5.2-5.2,8.3c-1.5,3.1-2.5,6.2-3,9.3
			c-0.3,2-0.3,3.7,0,4.9c0.4,1.2,1,2.1,1.9,2.7c0.9,0.6,2,1,3.4,1.1c1.4,0.1,2.9,0.2,4.6,0.1c0.9,0,1.8-0.1,2.8-0.1c1,0,2-0.1,3-0.2
			c1,0,1.5,0,2.5-0.1c1,0,1.7,0,2,0.1c0.3,0.1,0.6,0.3,0.8,0.7c0.2,0.4,0.3,0.8,0.2,1.2c-0.1,0.4-0.3,0.8-0.6,1.1
			c-0.1,0.1-0.2,0.1-0.4,0.2c-0.1,0-0.4,0.1-0.8,0.1s-1.1,0-2.1,0.1c-0.9,0-2.3,0.1-4.1,0.2c-1,0-1.5,0.1-2.5,0.1
			c-1.7,0.1-3,0.1-3.7,0.1c-0.7,0-1.2,0-1.5,0C326.1,172.2,326.1,172.2,326,172.2z"/>
	</g>
</g>
</svg>
