<svg id="Tree" data-name="Layer 1" xmlns="http://www.w3.org/2000/svg" viewBox="0 0 150.61 225.83"><path class="cls-1" d="M84.47,50.81c2.15-.8,4.14.36,4,2.39a6.5,6.5,0,0,1-1.11,3.28c-2.84,4-5.82,7.8-8.77,11.67a3.9,3.9,0,0,1-.91.67l-.38-.17c0-3.78,0-7.56,0-11.34a22.48,22.48,0,0,1,2-8.61c1.12-2.69,2.34-5.34,3.33-8.08a31,31,0,0,0,1-4.56L83.28,36a38.7,38.7,0,0,1-4.07,8.75c-1.62,2.74-2.76,5.75-4.06,8.55l-8.44-17.1a1.41,1.41,0,0,0,0,.37c.3,4.17,2.53,7.71,3.95,11.49,1.09,2.87,2.18,5.69,2.26,8.76.07,2.91-.12,5.81-.18,8.72,0,1.06,0,2.12,0,3.58a10.61,10.61,0,0,1-1-1c-1.07-1.47-2.09-3-3.2-4.44-2-2.67-4.25-5.25-6.18-8a4.53,4.53,0,0,1-.44-3,3.08,3.08,0,0,1,1.44-1.89,6.62,6.62,0,0,1,2.44-.27,2.61,2.61,0,0,0-2.1-1A2.35,2.35,0,0,0,61,50.71c-.3.59-.62,1.18-1,1.83-1.91-2-2.26-4.21-2.43-6.54-.15-2-.4-4-.6-6l-.57,0c0,2.4-.12,4.81,0,7.2a11.83,11.83,0,0,0,2,6.23c2.82,4,5.48,8.13,8.34,12.12a30.16,30.16,0,0,1,5.69,17.19c0,1,0,1.9,0,2.85a1.65,1.65,0,0,1-.7-.83,35.86,35.86,0,0,0-2-4.3c-1.5-2.36-3.39-4.47-6.41-4.56a4.62,4.62,0,0,0-4.24,2.83c-.7,1.4-.63,5,.84,6.21,0-1.27-.08-2.47,0-3.66.22-2.76,2.64-4,5.12-2.84,1.88.86,2.69,2.55,3.44,4.14a33.43,33.43,0,0,1,2.53,7.26c.66,3,.87,6.11,1.27,9.17l-.37.26c-.61-.32-1.23-.6-1.81-1-2-1.27-4-2.71-6.11-3.84-4.33-2.31-8.87-4.23-12.56-7.61-1.83-1.69-3.6-3.47-3.21-6.14a20.3,20.3,0,0,1,1.77-4.88c1.22-2.76,2.52-5.43,2.29-8.62A3.46,3.46,0,0,1,55,63.4a3.8,3.8,0,0,1,3.75.87,23.37,23.37,0,0,1,1.74,2.15c.17-2.15-2.65-4.93-4.76-4.58a10.33,10.33,0,0,0-2.76.74c-.82.39-1.12.06-1.49-.54a9.93,9.93,0,0,1-1-5.88c.07-1.53.41-3.06.67-4.84a5.85,5.85,0,0,0-.47.65c-1.54,3.22-2,6.53-.47,9.86,1.77,4,1.29,7.68-.71,11.38-.86,1.59-1.6,3.24-2.41,4.86-.18.36-.4.7-.64,1.1a14.42,14.42,0,0,1-2.66-5.81,72.79,72.79,0,0,0-2.22-8.07,59.69,59.69,0,0,0-3.7-6.91l-.39.19a3,3,0,0,0,.11.54,45.8,45.8,0,0,1,2.69,5.5,29.28,29.28,0,0,1,1.71,7.32,26.06,26.06,0,0,0,3.88,11.25C48,87,51.45,89.56,55.28,91.62c2.91,1.56,5.86,3,8.76,4.61a14.37,14.37,0,0,1,4.72,4c2.15,2.85,2.87,6.21,3.63,9.56a4.08,4.08,0,0,1-.28,1.38c-3-3.34-6.74-4.78-10.73-5.68-2.43-.54-4.81,0-7.16.6s-4.87,1.49-7.57,1.38c-5.32-.23-7.91-5.8-6.75-9.18a3.57,3.57,0,0,1,1.42-1.76c1.52-.92,3-1,4.13,1A3.42,3.42,0,0,0,44,94.23a1.24,1.24,0,0,1-.46-1.41,13.62,13.62,0,0,0-1.89-9.36c-.11-.18-.39-.26-.89-.56l.49,1.39c1.1,3.25,1.65,6.49-.11,9.7-.65,1.17-1.41,2.29-2,3.49-1,2-1.48,4.1-.21,6.23.34.58.61,1.21,1,2.08-1.1-.24-1.94-.41-2.77-.6a13.78,13.78,0,0,1-9.24-7.07,13.2,13.2,0,0,1-1-9,8.07,8.07,0,0,1,4-5.85,3,3,0,0,1,4.38,1.09,19.84,19.84,0,0,1,1.18,3.41,3.48,3.48,0,0,0,.44-1c.5-4-3.11-6.43-6-4.91a2,2,0,0,1-.74.08,3.57,3.57,0,0,1,.07-.74A13.54,13.54,0,0,0,31,75.6c-.2-1.72-.32-3.49-1.68-4.82a2.1,2.1,0,0,0-3.6.42c2-.49,2.76-.26,3.54,1.45a7.4,7.4,0,0,1,.55,5.23c-1,3.19-2.28,6.29-3.44,9.43-.88,2.38-1.74,4.77-1.39,7.39a3.36,3.36,0,0,1-.11.82c-.24-.2-.63-.36-.71-.62-1-3.47-2-7-3-10.44a31.25,31.25,0,0,0-1.52-4.59,14.68,14.68,0,0,0-2.1-2.74c.5,1.51,1.23,2.84,1.61,4.27a63.69,63.69,0,0,1,1.45,7,23.18,23.18,0,0,0,6.67,13.11c1.53,1.55,2.84,3.35,5,4.15,2.73,1,5.48,2,8.21,3,.7.26,1.38.61,2.21,1l-.64.73c-2,2.13-4,4.16-5.83,6.42a20.78,20.78,0,0,1-6.62,6,7.47,7.47,0,0,1-5.24,1c-2.34-.55-3.43-2.39-4.42-4.31-1.17-2.29,0-5.79,2.42-6.7a9.12,9.12,0,0,1,2.51-.26c-1.14-1.43-2.07-1.48-4.3-.08-.5-1.77-.89-3.53-1.52-5.2-.95-2.52-2-4-2.89-4.47,2.29,4,2.56,8.28,2,12.66a10.17,10.17,0,0,0,2.43,7.89,25.11,25.11,0,0,0,2.89,2.6c-3.27.77-5.91-.51-8.49-1.74-2.82-1.35-4.13-3.91-4.78-6.91a9.34,9.34,0,0,0-.13,3.14,16.77,16.77,0,0,0,1,2.85,8.89,8.89,0,0,0-2.42,1.49,5,5,0,0,0-1.14,2.76c-.09,1.73.72,2.62,2.44,3.18-.34-.53-.59-1-.87-1.36a2,2,0,0,1,.09-2.62,4.44,4.44,0,0,1,5.39-1.42c.89.42,1.73,1,2.65,1.31,2.61.93,5.18,2.11,8.23,1.68a17.63,17.63,0,0,0-.46,3,7.58,7.58,0,0,0,.52,2.66,2.39,2.39,0,0,0,1.9,1.76,5.5,5.5,0,0,1-.68-1.77,46.05,46.05,0,0,1,.28-5.11,2.87,2.87,0,0,1,1.52-2.1A16.3,16.3,0,0,0,31.75,124c2.59-2.76,5-5.65,7.61-8.43,1.82-2,3.6-4,6.16-5.12a43.17,43.17,0,0,1,7.72-2.57,20.72,20.72,0,0,1,9.27,0c3.26.78,5.51,2.93,7.35,5.62,1,1.44,2.28,2.7,2.48,4.84-.43-.3-.73-.48-1-.7a9.33,9.33,0,0,0-1.55-1.28,13.45,13.45,0,0,0-14.48.88,15.28,15.28,0,0,0-5,5.59C49.15,125,48,127.12,47,129.38a43.92,43.92,0,0,1-3.9,6.91c-1.22,1.79-3.24,1.84-4.85.44,0,.13-.06.26,0,.35.82,1.72,2.22,2.18,4.27.81a14.73,14.73,0,0,0,3.35-3.63c1-1.4,1.79-3,2.69-4.46a3,3,0,0,1,.59-.53,3.52,3.52,0,0,1,.53.69c.39.8.65,1.68,1.11,2.44a2.3,2.3,0,0,0,3.53.3,2.88,2.88,0,0,1-3-1.1,6.31,6.31,0,0,1-1.26-5.52,12.31,12.31,0,0,1,6.52-8A4.42,4.42,0,0,1,60,117.4a1.36,1.36,0,0,1-.06.43,9.58,9.58,0,0,0,.14,9.55c.8,1.45,2.1,2.66,1.67,4.58,1.29-1.57.79-3.08,0-4.52-1.52-2.7-2.33-5.51-1.15-8.5a4.4,4.4,0,0,1,2-2.31c2.15-.9,6.16.72,7.58,2.65,2.16,2.94,2,6.38,2,9.71,0,4.7-.49,9.39-.61,14.09-.17,6.53-.2,13.06-.29,19.59,0,1.55,0,3.09,0,4.64-.11,2.7-.35,5.39-.42,8.09-.12,5.23-.17,10.46-.25,15.68a3.81,3.81,0,0,1,0,.48c-.49,2.85-1,5.71-1.49,8.55-.45,2.34-1,4.7-2.57,6.54a44.38,44.38,0,0,1-5.2,5.24,10.73,10.73,0,0,1-4.4,2.19c-3.31.71-6.71,1-10.07,1.53a36.37,36.37,0,0,0-8.26,2,10.76,10.76,0,0,0-5,3.9c-.87,1.26-.91,2.49.21,3.37a2,2,0,0,0,2.75-.28c-.51-.25-1.51-.45-1.58-.82a5,5,0,0,1,.45-2.32,1.72,1.72,0,0,1,.83-.83c1.8-.89,3.55-2.06,5.46-2.5A82.79,82.79,0,0,1,50.75,217c.19,0,.41.21.7.37-.78.6-1.41,1.13-2.1,1.59A5.14,5.14,0,0,0,46.94,222c-.27,1-.4,2,.61,2.65a2.76,2.76,0,0,0,3.07-.16,1.23,1.23,0,0,0-.28-.17c-1.83-.31-2.31-1.17-1.46-2.8a5.69,5.69,0,0,1,3.76-3.24c1.88-.4,3.79-.68,5.7-.91a31,31,0,0,1,3.4,0c-.51.61-.77.94-1,1.25-.92,1-1.9,2.11-1.83,3.58a3.76,3.76,0,0,0,.89,2.31,1.65,1.65,0,0,0,2.34.16,2.27,2.27,0,0,1-1-3.45,9.06,9.06,0,0,1,3.75-3.4,17.48,17.48,0,0,1,8.36-1.69c2.6.11,5.22,0,7.79.33,3.23.41,6.12,1.66,8,4.56a2.35,2.35,0,0,1-.85,3.69,2.12,2.12,0,0,0,3-1.16c.61-1.85-.15-3.33-1.37-4.66-.38-.41-.75-.83-1.12-1.25l.21-.43c2.59.24,5.2.33,7.75.77a6.25,6.25,0,0,1,4.86,4,1.55,1.55,0,0,1-1.27,2.35c-.21,0-.42.09-.72.15,1.54,1.12,3.79.53,3.92-.95a4,4,0,0,0-1.24-3.44c-1.07-1-2.23-1.83-3.42-2.81.26-.13.43-.3.6-.29,1.78.11,3.56.21,5.33.37a21.94,21.94,0,0,1,8.94,2.92c1.16.67,2.12,2.31,1.67,3.33-.22.52-1.08.76-1.6,1.09,1,.81,2,.89,2.77.13a2.52,2.52,0,0,0,.3-3.11,10.83,10.83,0,0,0-4.26-3.7c-3.72-1.74-7.74-2.17-11.7-2.84-2-.33-4-.33-6-.62a14.15,14.15,0,0,1-8-4.42,18.21,18.21,0,0,1-3.9-4.78,38,38,0,0,1-2.49-8.23,43.65,43.65,0,0,1-.74-7.23c-.21-5.33-.3-10.66-.42-16-.08-3.21-.05-6.43-.17-9.65-.12-3.38-.47-6.76-.54-10.15-.1-5.37,0-10.74-.07-16.11,0-1-.07-2.07-.09-3.11-.07-3.46-.22-6.92-.14-10.37a10.67,10.67,0,0,1,1-3.76c1.06-2.55,3.34-3.55,5.82-4.23a3.59,3.59,0,0,1,4.7,2.57,9,9,0,0,1-.39,6.61,25.5,25.5,0,0,0-1.59,4.41c-.17.65.24,1.44.37,2.13a14.91,14.91,0,0,1,1.28-3.62,10,10,0,0,0,1-10.54,7.78,7.78,0,0,1-.24-.86,17.48,17.48,0,0,1,2,.32,10.36,10.36,0,0,1,5.63,3.95c1.66,2.28,3.09,4.7,2.25,7.78-.63,2.33-2,3.63-4,3.54a2.19,2.19,0,0,0,3.26-.17,20.9,20.9,0,0,0,1.17-2.43,8.1,8.1,0,0,1,.62-.91,3.92,3.92,0,0,1,.7.71c1.14,1.79,2.18,3.64,3.38,5.39,1.06,1.55,2.29,3,4.36,3.24a2,2,0,0,0,2.36-1.58c-.62.24-1.43.86-2.07.72a4.54,4.54,0,0,1-2.7-1.5,43.62,43.62,0,0,1-4-7.1c-1.36-3.17-2.59-6.35-4.94-9-3.42-3.8-7.51-6-12.76-5.36-2.46.32-4.9.94-6.68,2.93a2.54,2.54,0,0,1-.78.42l-.23-.26c.5-1,.93-2,1.51-2.9s1.31-1.79,2-2.69c2.86-4,7-5.09,11.56-5a20.59,20.59,0,0,1,5.37.94c3.74,1.08,7.63,2,10.44,5,2.14,2.3,4.16,4.72,6.32,7,2,2.07,4.07,4,6.12,6,.66.64,1.74,1.17,1.94,1.93.64,2.5,1.27,5.08-.1,7.6,2.9-1.79,2.32-4.63,2-7.34a20,20,0,0,0,10.47-2.91,4.5,4.5,0,0,1,4.75.21,2.63,2.63,0,0,1,.86,3.94c-.21.32-.38.67-.68,1.19a3.21,3.21,0,0,0,2.47-3.16c0-2.39-1.39-3.8-3.71-4.3,1.13-2,1.78-4.51.72-6.07a8,8,0,0,1-4.58,6.94c-2.54,1.23-5.15,2.48-8.34,1.69a28.38,28.38,0,0,0,2.87-2.61,9.61,9.61,0,0,0,2.42-7.8,23.63,23.63,0,0,1,.79-10,22,22,0,0,1,1.24-2.82c-2.55,2.75-3.65,6.18-4.32,9.85-2.3-1.51-3.63-1.4-4.36.14,2.45-.35,4.07.46,4.8,2.38a5.62,5.62,0,0,1-.66,5.84c-2.18,2.81-3.62,3.68-7.15,2.68a14.62,14.62,0,0,1-7-5c-1.74-2-3.39-4.1-5.12-6.13-.81-.94-1.7-1.82-2.68-2.85a12.06,12.06,0,0,1,1.42-.73c2.83-1.06,5.71-2,8.49-3.17a13.33,13.33,0,0,0,3.66-2.38,38.85,38.85,0,0,0,3.59-4,17.33,17.33,0,0,0,3.91-7.25c.81-3.63,1.49-7.29,2.36-10.9a25.11,25.11,0,0,1,1.53-3.74l-.3-.18A19.38,19.38,0,0,0,130.11,81c-.84,2.42-1.3,5-2,7.44-.63,2.19-1.36,4.35-2.08,6.52-.08.24-.4.4-.61.6a3.84,3.84,0,0,1-.18-.8A17.31,17.31,0,0,0,125,91c-.79-2.52-1.87-5-2.81-7.42-1.15-3.08-2.42-6.13-1.64-9.55.44-1.92,1.71-4,3.86-2.75,0,0,.1-.08.16-.12-1-1.31-1.74-1.6-3-.75a4.34,4.34,0,0,0-1.73,2.15,12.55,12.55,0,0,0,0,7.83,8,8,0,0,1,.26,1.57,11.51,11.51,0,0,0-1.28-.24c-.47,0-1,.07-1.43,0-2.85-.38-4.51,2.6-4.07,5.28a3,3,0,0,0,.51.91,6,6,0,0,0,.2-1.42c.34-2.57,2.76-4.85,5.55-3a6.25,6.25,0,0,1,2.87,3.23c.39,1.27.71,2.57,1,3.88a11,11,0,0,1-1.24,7.73,13.89,13.89,0,0,1-8.77,6.83c-.95.26-1.93.37-2.93.56,0-.32,0-.42,0-.47,2.21-2.87,2.1-5.8.07-8.66a12.27,12.27,0,0,1-1.76-11.71c.21-.6.44-1.18.66-1.77l-.5-.39c-.16.32-.29.65-.47,1a13.75,13.75,0,0,0-1.77,9.28,1.83,1.83,0,0,1-.51,1.23,4.63,4.63,0,0,0-1.53,3.14c.24-.06.36-.06.38-.11a2.21,2.21,0,0,1,2.71-1.2,3.36,3.36,0,0,1,2.67,2.4c1,3.49-1.73,8.91-6.88,9A18.89,18.89,0,0,1,97,106.32a17,17,0,0,0-13,.62,49.53,49.53,0,0,0-6,3.79,3.71,3.71,0,0,1-.06-1c.16-1,.36-2,.6-3,1.18-4.83,3.73-8.56,8.33-10.83,3.45-1.7,6.78-3.64,10.15-5.5a20.37,20.37,0,0,0,7.93-8,31.63,31.63,0,0,0,3.83-12.85,19.42,19.42,0,0,1,2.61-7.91c.55-1,1-2,1.52-3l-.47-.25a56.11,56.11,0,0,0-3.71,7C107.55,68.45,107,71.79,106,75a33.14,33.14,0,0,1-1.89,4.17,77.61,77.61,0,0,1-4.24-8.06,10.47,10.47,0,0,1-.14-8.34c.9-2.29,1.63-4.55,1.1-7a8.18,8.18,0,0,0-1.67-4.21c.92,3.92,1.36,7.77-.93,11.4-2.32-.87-4.46-1.84-6.55-.05a4.3,4.3,0,0,0-1.91,3.6,15.65,15.65,0,0,1,1.78-2.24,4,4,0,0,1,4.33-.64c1.34.53,1.65,1.73,1.8,3.09a29.89,29.89,0,0,0,1.06,5.81c.67,2.14,1.77,4.15,2.58,6.25A6.19,6.19,0,0,1,99.72,86a36.4,36.4,0,0,1-8.83,6.19c-3.8,1.94-7.75,3.61-11,6.45a6.25,6.25,0,0,1-1.92.74c.12-1.21.26-2.15.31-3.09A32.6,32.6,0,0,1,80.59,85a30.62,30.62,0,0,1,3-5.26c1.09-1.57,3.43-2.2,4.59-1.47a4,4,0,0,1,2.09,3.39c0,1.17,0,2.35,0,3.6a6.78,6.78,0,0,0,1.25-4.57,4.59,4.59,0,0,0-2.66-4.16,4.44,4.44,0,0,0-4.92.37,12.37,12.37,0,0,0-4.71,6c-.35,1-.82,1.87-1.23,2.81-.32-.26-.42-.44-.41-.61.23-2.49.41-5,.73-7.46a23.86,23.86,0,0,1,4-10.28c2.47-3.68,5-7.35,7.5-11,2-2.8,3.84-5.63,4-9.19.08-2.39,0-4.78,0-7.17l-.6,0c-.2,2-.45,4-.59,6-.16,2.37-.53,4.63-2.27,6.37a12.49,12.49,0,0,0-2.47-2.75A2.6,2.6,0,0,0,84.47,50.81ZM32.76,45.54l-1-3.46-.21.07-.66,3.54-1.46-.75c.77,2.09-1.2,1.84-2,2.57.75.78,3-.06,2.07,2.3L31,49c.22,1.21.41,2.27.6,3.33a1.45,1.45,0,0,0,.36-.86c.05-.27.16-.53.19-.8.17-1.76.16-1.76,1.73-1,0,0,.11,0,.14-.06l-.23-1.37,2.49-.69c-1-.77-3.07-.36-2.12-2.6ZM145.15,77.4l.18-.05.58-3.07,1.68.57-.46-1.33,2.46-.79c-1-.8-2.89-.57-2-2.56a1.91,1.91,0,0,0-.47.09c-1.21.58-1.27.53-1.4-.79-.07-.76-.22-1.52-.33-2.28l-.18,0-1,3.51-1.54-.56c1.2,2.29-1.32,1.64-1.73,2.69l2.31.71-.34,1.27c.25,0,.4,0,.48,0,.89-.71,1.3-.53,1.36.64A13.36,13.36,0,0,0,145.15,77.4ZM5,67.14l-.23,0c-.1.9-.19,1.8-.29,2.71-.08.65-.34,1-1,.57a8.51,8.51,0,0,0-1-.38c1.27,2.29-1.18,1.71-1.7,2.64,2.17.34,2.35.52,2,2.1l1.57-.57.53,3.24a5.14,5.14,0,0,0,.6-1.78c.29-1.44.28-1.44,1.65-1,.05,0,.13,0,.22-.09L7,73.5l2.39-.75c-.69-.9-2.9-.48-1.84-2.68l-1.47.62ZM59.86,26.2c-1.3-2.57,1-1.72,1.84-2.3-.68-.91-3.11-.39-1.89-2.64l-1.45.52-1-3.34a1.47,1.47,0,0,0-.26.79c-.06.31-.15.61-.21.92-.29,1.59-.28,1.59-1.87,1.35.73,1.91-1.21,1.58-1.94,2.33.71.68,3.12-.25,1.84,2.31l1.7-.86.6,3.33a6.37,6.37,0,0,0,.59-2.24c.11-1.08.28-1.2,1.21-.67Zm60.57,20.32.31-1.53-1.45.71c-.23-1.28-.44-2.42-.65-3.57h-.22l-.9,3.41L116,45c1.17,2.41-1.25,1.72-1.86,2.56.69.76,3.13-.21,2,2.24a3.73,3.73,0,0,0,.56-.2c1.17-.64,1.28-.57,1.36.73,0,.69.18,1.37.27,2l.26,0,.56-3.36,1.54.73-.25-1.52,2.46-.64a6.81,6.81,0,0,0-.69-.39Zm-27.38-28-.26-.08c-.15.64-.29,1.27-.48,1.9-.13.45-.2,1-.51,1.26s-.83-.1-1.35-.19L91,22.65l-2.64,1.24,2.55.67-.49,1.62.66-.37c1-.67,1.18-.59,1.3.67.07.72.22,1.43.33,2.14H93l.59-3.36,1.66.88-.4-1.53,2.69-.79-2.79-1,.58-1.46-1.69.61C93.41,20.72,93.23,19.61,93.05,18.5ZM72.86,4.68c1,2.28-1.22,1.81-2.09,2.59.82.72,3-.1,2.14,2.23l1.59-.77L75,11.82l.22,0,.48-3.06,1.67.72c-1-2.44,1.51-1.32,2-2.23-.85-.71-2.88-.32-2-2.53-1.48.86-1.48.86-1.75-.6-.14-.75-.24-1.51-.35-2.26a9.25,9.25,0,0,0-.63,2.83c-.06.62-.29.79-.84.5Z"/></svg>